<?xml version="1.0" encoding="UTF-8" standalone="no"?>
<svg
   id="svg8"
   version="1.1"
   viewBox="0 0 338.66666 169.33333"
   height="169.33333mm"
   width="338.66666mm"
   xmlns="http://www.w3.org/2000/svg"
   xmlns:svg="http://www.w3.org/2000/svg"
   xmlns:rdf="http://www.w3.org/1999/02/22-rdf-syntax-ns#"
   xmlns:cc="http://creativecommons.org/ns#"
   xmlns:dc="http://purl.org/dc/elements/1.1/">
  <defs
     id="defs2" />
  <metadata
     id="metadata5">
    <rdf:RDF>
      <cc:Work
         rdf:about="">
        <dc:format>image/svg+xml</dc:format>
        <dc:type
           rdf:resource="http://purl.org/dc/dcmitype/StillImage" />
      </cc:Work>
    </rdf:RDF>
  </metadata>
  <path
     d="M 338.38397,0 H 0.28268 C 0.12607,0 0,0.126077 0,0.282684 V 169.05065 c 0,0.1566 0.12607,0.28268 0.28268,0.28268 h 338.10129 c 0.1566,0 0.28268,-0.12608 0.28268,-0.28268 V 0.282684 C 338.66665,0.126077 338.54057,0 338.38397,0 Z"
     style="fill:#ffffff;fill-opacity:1;stroke-width:6.60818"
     id="rect833" />
  <g
     transform="matrix(0.12499638,0,0,0.12499638,136.96067,29.317776)"
     id="g1200">
    <path
       style="fill:#1689fc"
       d="m 229.17014,505.24768 h -151 c -8.291,0 -15,-6.709 -15,-15 0,-8.291 6.709,-15 15,-15 h 151 c 8.291,0 15,6.709 15,15 0,8.291 -6.709,15 -15,15 z"
       id="path1052" />
    <path
       style="fill:#136ef1"
       d="m 440.17014,505.24768 h -151 c -8.291,0 -15,-6.709 -15,-15 0,-8.291 6.709,-15 15,-15 h 151 c 8.291,0 15,6.709 15,15 0,8.291 -6.709,15 -15,15 z"
       id="path1054" />
    <path
       style="fill:#1689fc"
       d="m 274.17014,398.24768 v 62 c 0,8.399 -6.599,15 -15,15 -8.401,0 -15,-6.601 -15,-15 v -62 c 0,-8.401 6.599,-15 15,-15 8.401,0 15,6.599 15,15 z"
       id="path1056" />
    <path
       style="fill:#136ef1"
       d="m 274.17014,398.24768 v 62 c 0,8.399 -6.599,15 -15,15 v -92 c 8.401,0 15,6.599 15,15 z"
       id="path1058" />
    <path
       style="fill:#00c8c8"
       d="m 259.17014,445.24768 c -24.901,0 -45,20.099 -45,45 0,24.899 20.099,45 45,45 24.901,0 45,-20.101 45,-45 0,-24.901 -20.099,-45 -45,-45 z"
       id="path1060" />
    <path
       style="fill:#00a1b2"
       d="m 470.17014,535.24768 c -24.814,0 -45,-20.186 -45,-45 0,-24.814 20.186,-45 45,-45 24.814,0 45,20.186 45,45 0,24.814 -20.186,45 -45,45 z"
       id="path1062" />
    <path
       style="fill:#bfe1ff"
       d="m 470.17014,505.24768 c -8.271,0 -15,-6.729 -15,-15 0,-8.271 6.729,-15 15,-15 8.271,0 15,6.729 15,15 0,8.271 -6.729,15 -15,15 z"
       id="path1064" />
    <path
       style="fill:#00c8c8"
       d="m 48.170139,535.24768 c -24.814,0 -45.0000008,-20.186 -45.0000008,-45 0,-24.814 20.1860008,-45 45.0000008,-45 24.814001,0 45.000001,20.186 45.000001,45 0,24.814 -20.186,45 -45.000001,45 z"
       id="path1066" />
    <path
       style="fill:#e1f1fa"
       d="m 48.170139,505.24768 c -8.271,0 -15,-6.729 -15,-15 0,-8.271 6.729,-15 15,-15 8.271,0 15.000001,6.729 15.000001,15 0,8.271 -6.729001,15 -15.000001,15 z"
       id="path1068" />
    <g
       id="g1074"
       transform="translate(3.1701382,23.247682)">
      <path
         style="fill:#0053bf"
         d="M 467,120 H 45 c -8.401,0 -15,6.599 -15,15 v 60 c 0,8.399 6.599,15 15,15 h 422 c 8.401,0 15,-6.601 15,-15 v -60 c 0,-8.401 -6.599,-15 -15,-15 z"
         id="path1070" />
      <path
         style="fill:#0053bf"
         d="M 467,300 H 45 c -8.401,0 -15,6.599 -15,15 v 30 c 0,24.899 20.099,45 45,45 h 362 c 24.901,0 45,-20.101 45,-45 v -30 c 0,-8.401 -6.599,-15 -15,-15 z"
         id="path1072" />
    </g>
    <path
       style="fill:#65b1fc"
       d="M 470.17014,203.24768 H 48.170139 c -24.901,0 -45.0000008,20.099 -45.0000008,45 v 60 c 0,24.899 20.0990008,45 45.0000008,45 H 470.17014 c 24.901,0 45,-20.101 45,-45 v -60 c 0,-24.901 -20.099,-45 -45,-45 z"
       id="path1076" />
    <path
       style="fill:#00a1b2"
       d="m 304.17014,490.24768 c 0,24.899 -20.099,45 -45,45 v -90 c 24.901,0 45,20.099 45,45 z"
       id="path1078" />
    <path
       style="fill:#e1f1fa"
       d="m 259.17014,505.24768 c -8.271,0 -15,-6.729 -15,-15 0,-8.271 6.729,-15 15,-15 8.271,0 15,6.729 15,15 0,8.271 -6.729,15 -15,15 z"
       id="path1080" />
    <path
       style="fill:#bfe1ff"
       d="m 274.17014,490.24768 c 0,-8.271 -6.729,-15 -15,-15 v 30 c 8.271,0 15,-6.729 15,-15 z"
       id="path1082" />
    <g
       id="g1088"
       transform="translate(3.1701382,23.247682)">
      <path
         style="fill:#05377f"
         d="m 482,135 v 60 c 0,8.399 -6.599,15 -15,15 H 256 v -90 h 211 c 8.401,0 15,6.599 15,15 z"
         id="path1084" />
      <path
         style="fill:#05377f"
         d="m 482,315 v 30 c 0,24.899 -20.099,45 -45,45 H 256 v -90 h 211 c 8.401,0 15,6.599 15,15 z"
         id="path1086" />
    </g>
    <path
       style="fill:#1689fc"
       d="m 515.17014,248.24768 v 60 c 0,24.899 -20.099,45 -45,45 h -211 v -150 h 211 c 24.901,0 45,20.099 45,45 z"
       id="path1090" />
    <path
       style="fill:#65b1fc"
       d="M 470.17014,23.247682 H 48.170139 c -24.901,0 -45.0000008,20.099 -45.0000008,45 v 59.999998 c 0,24.899 20.0990008,45 45.0000008,45 H 470.17014 c 24.901,0 45,-20.101 45,-45 V 68.247682 c 0,-24.901 -20.099,-45 -45,-45 z"
       id="path1092" />
    <path
       style="fill:#1689fc"
       d="m 515.17014,68.247682 v 59.999998 c 0,24.899 -20.099,45 -45,45 h -211 V 23.247682 h 211 c 24.901,0 45,20.099 45,45 z"
       id="path1094" />
    <path
       d="m 93.17014,98.247682 a 15,15 0 0 1 -15,14.999998 15,15 0 0 1 -15,-14.999998 15,15 0 0 1 15,-15 15,15 0 0 1 15,15"
       style="fill:#e1f1fa"
       id="circle1096" />
    <g
       id="g1102"
       transform="translate(3.1701382,23.247682)">
      <path
         d="M 151,75 A 15,15 0 0 1 136,90 15,15 0 0 1 121,75 15,15 0 0 1 136,60 15,15 0 0 1 151,75"
         style="fill:#0053bf"
         id="circle1098" />
      <path
         d="M 211,75 A 15,15 0 0 1 196,90 15,15 0 0 1 181,75 15,15 0 0 1 196,60 15,15 0 0 1 211,75"
         style="fill:#0053bf"
         id="circle1100" />
    </g>
    <path
       style="fill:#05377f"
       d="m 440.17014,113.24768 h -151 c -8.291,0 -15,-6.709 -15,-14.999998 0,-8.291 6.709,-15 15,-15 h 151 c 8.291,0 15,6.709 15,15 0,8.290998 -6.709,14.999998 -15,14.999998 z"
       id="path1104" />
    <path
       d="m 93.17014,278.24768 a 15,15 0 0 1 -15,15 15,15 0 0 1 -15,-15 15,15 0 0 1 15,-15 15,15 0 0 1 15,15"
       style="fill:#e1f1fa"
       id="circle1106" />
    <g
       id="g1112"
       transform="translate(3.1701382,23.247682)">
      <path
         d="m 151,255 a 15,15 0 0 1 -15,15 15,15 0 0 1 -15,-15 15,15 0 0 1 15,-15 15,15 0 0 1 15,15"
         style="fill:#0053bf"
         id="circle1108" />
      <path
         d="m 211,255 a 15,15 0 0 1 -15,15 15,15 0 0 1 -15,-15 15,15 0 0 1 15,-15 15,15 0 0 1 15,15"
         style="fill:#0053bf"
         id="circle1110" />
    </g>
    <path
       style="fill:#05377f"
       d="m 440.17014,293.24768 h -151 c -8.291,0 -15,-6.709 -15,-15 0,-8.291 6.709,-15 15,-15 h 151 c 8.291,0 15,6.709 15,15 0,8.291 -6.709,15 -15,15 z"
       id="path1114" />
    <g
       id="g1116" />
    <g
       id="g1118" />
    <g
       id="g1120" />
    <g
       id="g1122" />
    <g
       id="g1124" />
    <g
       id="g1126" />
    <g
       id="g1128" />
    <g
       id="g1130" />
    <g
       id="g1132" />
    <g
       id="g1134" />
    <g
       id="g1136" />
    <g
       id="g1138" />
    <g
       id="g1140" />
    <g
       id="g1142" />
    <g
       id="g1144" />
  </g>
  <g
     aria-label="Docker, Docker Swarm, Reverse Proxy"
     id="text571"
     style="font-weight:500;font-size:12.3498px;line-height:1.25;font-family:'Avenir Next';-inkscape-font-specification:'Avenir Next, Medium';text-align:center;text-anchor:middle;fill-opacity:0.605341;fill-rule:evenodd;stroke-width:0.301612">
    <path
       d="m 63.110913,125.62785 h 3.001001 q 0.839786,0 1.679573,0.24699 0.839786,0.247 1.519025,0.77804 0.679239,0.53104 1.099132,1.35848 0.419894,0.82744 0.419894,1.98832 0,1.12383 -0.419894,1.95126 -0.419893,0.81509 -1.099132,1.35848 -0.679239,0.53104 -1.519025,0.80274 -0.839787,0.25935 -1.679573,0.25935 h -3.001001 z m 1.22263,7.66922 h 1.531375 q 0.790387,0 1.457276,-0.22229 0.679239,-0.2223 1.160882,-0.64219 0.493992,-0.4199 0.765687,-1.03739 0.271696,-0.61749 0.271696,-1.39552 0,-0.81509 -0.271696,-1.43258 -0.271695,-0.61749 -0.765687,-1.02503 -0.481643,-0.4199 -1.160882,-0.62984 -0.666889,-0.2223 -1.457276,-0.2223 h -1.531375 z"
       id="path2252" />
    <path
       d="m 78.375262,131.43225 q 0,0.67924 -0.246996,1.24733 -0.234646,0.56809 -0.666889,0.98799 -0.419893,0.40754 -1.000334,0.64219 -0.580441,0.22229 -1.24733,0.22229 -0.666889,0 -1.24733,-0.22229 -0.58044,-0.23465 -1.000333,-0.64219 -0.419894,-0.4199 -0.66689,-0.98799 -0.234646,-0.56809 -0.234646,-1.24733 0,-0.67924 0.234646,-1.23498 0.246996,-0.56809 0.66689,-0.97563 0.419893,-0.40754 1.000333,-0.62984 0.580441,-0.23465 1.24733,-0.23465 0.666889,0 1.24733,0.23465 0.580441,0.2223 1.000334,0.62984 0.432243,0.40754 0.666889,0.97563 0.246996,0.55574 0.246996,1.23498 z m -1.21028,0 q 0,-0.41989 -0.135848,-0.80273 -0.123498,-0.38285 -0.370494,-0.66689 -0.246996,-0.2964 -0.61749,-0.4693 -0.358144,-0.17289 -0.827437,-0.17289 -0.469292,0 -0.839786,0.17289 -0.358144,0.1729 -0.60514,0.4693 -0.246996,0.28404 -0.382844,0.66689 -0.123498,0.38284 -0.123498,0.80273 0,0.4199 0.123498,0.80274 0.135848,0.38284 0.382844,0.67924 0.246996,0.29639 0.60514,0.46929 0.370494,0.1729 0.839786,0.1729 0.469293,0 0.827437,-0.1729 0.370494,-0.1729 0.61749,-0.46929 0.246996,-0.2964 0.370494,-0.67924 0.135848,-0.38284 0.135848,-0.80274 z"
       id="path2254" />
    <path
       d="m 84.080854,129.99968 q -0.185247,-0.28405 -0.555741,-0.4693 -0.370494,-0.19759 -0.790387,-0.19759 -0.456943,0 -0.815087,0.17289 -0.345794,0.1729 -0.59279,0.4693 -0.246996,0.28404 -0.382844,0.66689 -0.123498,0.38284 -0.123498,0.80273 0,0.4199 0.123498,0.80274 0.135848,0.38284 0.382844,0.67924 0.246996,0.28404 0.60514,0.45694 0.358144,0.1729 0.815087,0.1729 0.444592,0 0.802737,-0.1729 0.370494,-0.1729 0.60514,-0.46929 l 0.778037,0.70394 q -0.370494,0.43224 -0.926235,0.67924 -0.555741,0.23464 -1.259679,0.23464 -0.679239,0 -1.25968,-0.22229 -0.568091,-0.2223 -0.987984,-0.61749 -0.419893,-0.40755 -0.666889,-0.97564 -0.234647,-0.56809 -0.234647,-1.27203 0,-0.69159 0.234647,-1.25968 0.234646,-0.56809 0.654539,-0.97563 0.419893,-0.40754 0.987984,-0.62984 0.580441,-0.2223 1.24733,-0.2223 0.61749,0 1.22263,0.247 0.61749,0.247 0.975634,0.71629 z"
       id="path2256" />
    <path
       d="m 87.267095,131.06176 h 0.03705 l 2.457611,-2.54406 h 1.556074 l -2.741655,2.65521 2.976302,3.1986 h -1.605474 l -2.642858,-3.03806 h -0.03705 v 3.03806 h -1.160881 v -9.33645 h 1.160881 z"
       id="path2258" />
    <path
       d="m 96.652906,130.92591 q -0.01235,-0.34579 -0.123498,-0.64219 -0.0988,-0.30874 -0.308745,-0.53104 -0.197597,-0.2223 -0.506342,-0.34579 -0.296395,-0.13585 -0.703939,-0.13585 -0.370494,0 -0.703939,0.13585 -0.321094,0.12349 -0.56809,0.34579 -0.234647,0.2223 -0.395194,0.53104 -0.148198,0.2964 -0.172897,0.64219 z m 1.173231,0.46929 q 0,0.0988 0,0.1976 0,0.0988 -0.01235,0.1976 h -4.643525 q 0.01235,0.37049 0.160547,0.70394 0.160548,0.32109 0.419893,0.56809 0.259346,0.23464 0.592791,0.37049 0.345794,0.13585 0.728638,0.13585 0.592791,0 1.025034,-0.25935 0.432243,-0.25934 0.679239,-0.62984 l 0.815086,0.65454 q -0.469292,0.61749 -1.111482,0.91389 -0.629839,0.28404 -1.407877,0.28404 -0.666889,0 -1.23498,-0.22229 -0.568091,-0.2223 -0.975634,-0.61749 -0.407544,-0.40755 -0.64219,-0.97564 -0.234646,-0.56809 -0.234646,-1.25968 0,-0.67924 0.222296,-1.24733 0.234647,-0.58044 0.64219,-0.98798 0.407543,-0.40754 0.963284,-0.62984 0.555741,-0.23465 1.197931,-0.23465 0.64219,0 1.160881,0.20995 0.531042,0.20995 0.889186,0.60514 0.370494,0.39519 0.568091,0.96328 0.197597,0.55575 0.197597,1.25968 z"
       id="path2260" />
    <path
       d="m 99.443962,129.77738 q 0,-0.23465 -0.01235,-0.60514 -0.01235,-0.37049 -0.03705,-0.65454 h 1.099128 q 0.0247,0.2223 0.037,0.51869 0.0124,0.28405 0.0124,0.46929 h 0.037 q 0.247,-0.51869 0.71629,-0.82743 0.48164,-0.3211 1.07443,-0.3211 0.2717,0 0.45695,0.0494 l -0.0494,1.07443 q -0.247,-0.0617 -0.53104,-0.0617 -0.4199,0 -0.72864,0.16054 -0.30875,0.1482 -0.51869,0.40755 -0.1976,0.25934 -0.2964,0.60514 -0.0988,0.33344 -0.0988,0.70394 v 3.0751 h -1.160879 v -4.59413 z"
       id="path2262" />
    <path
       d="m 103.72933,136.01403 h -0.98798 l 0.85213,-3.08745 h 1.16089 z"
       id="path2264" />
    <path
       d="m 109.31139,125.62785 h 3.001 q 0.83978,0 1.67957,0.24699 0.83979,0.247 1.51903,0.77804 0.67924,0.53104 1.09913,1.35848 0.41989,0.82744 0.41989,1.98832 0,1.12383 -0.41989,1.95126 -0.41989,0.81509 -1.09913,1.35848 -0.67924,0.53104 -1.51903,0.80274 -0.83979,0.25935 -1.67957,0.25935 h -3.001 z m 1.22263,7.66922 h 1.53137 q 0.79039,0 1.45728,-0.22229 0.67924,-0.2223 1.16088,-0.64219 0.49399,-0.4199 0.76569,-1.03739 0.27169,-0.61749 0.27169,-1.39552 0,-0.81509 -0.27169,-1.43258 -0.2717,-0.61749 -0.76569,-1.02503 -0.48164,-0.4199 -1.16088,-0.62984 -0.66689,-0.2223 -1.45728,-0.2223 h -1.53137 z"
       id="path2266" />
    <path
       d="m 124.57574,131.43225 q 0,0.67924 -0.247,1.24733 -0.23464,0.56809 -0.66689,0.98799 -0.41989,0.40754 -1.00033,0.64219 -0.58044,0.22229 -1.24733,0.22229 -0.66689,0 -1.24733,-0.22229 -0.58044,-0.23465 -1.00033,-0.64219 -0.4199,-0.4199 -0.66689,-0.98799 -0.23465,-0.56809 -0.23465,-1.24733 0,-0.67924 0.23465,-1.23498 0.24699,-0.56809 0.66689,-0.97563 0.41989,-0.40754 1.00033,-0.62984 0.58044,-0.23465 1.24733,-0.23465 0.66689,0 1.24733,0.23465 0.58044,0.2223 1.00033,0.62984 0.43225,0.40754 0.66689,0.97563 0.247,0.55574 0.247,1.23498 z m -1.21028,0 q 0,-0.41989 -0.13585,-0.80273 -0.1235,-0.38285 -0.37049,-0.66689 -0.247,-0.2964 -0.61749,-0.4693 -0.35815,-0.17289 -0.82744,-0.17289 -0.46929,0 -0.83979,0.17289 -0.35814,0.1729 -0.60514,0.4693 -0.24699,0.28404 -0.38284,0.66689 -0.1235,0.38284 -0.1235,0.80273 0,0.4199 0.1235,0.80274 0.13585,0.38284 0.38284,0.67924 0.247,0.29639 0.60514,0.46929 0.3705,0.1729 0.83979,0.1729 0.46929,0 0.82744,-0.1729 0.37049,-0.1729 0.61749,-0.46929 0.24699,-0.2964 0.37049,-0.67924 0.13585,-0.38284 0.13585,-0.80274 z"
       id="path2268" />
    <path
       d="m 130.28133,129.99968 q -0.18525,-0.28405 -0.55574,-0.4693 -0.3705,-0.19759 -0.79039,-0.19759 -0.45694,0 -0.81509,0.17289 -0.34579,0.1729 -0.59279,0.4693 -0.24699,0.28404 -0.38284,0.66689 -0.1235,0.38284 -0.1235,0.80273 0,0.4199 0.1235,0.80274 0.13585,0.38284 0.38284,0.67924 0.247,0.28404 0.60514,0.45694 0.35815,0.1729 0.81509,0.1729 0.44459,0 0.80274,-0.1729 0.37049,-0.1729 0.60514,-0.46929 l 0.77803,0.70394 q -0.37049,0.43224 -0.92623,0.67924 -0.55574,0.23464 -1.25968,0.23464 -0.67924,0 -1.25968,-0.22229 -0.56809,-0.2223 -0.98798,-0.61749 -0.4199,-0.40755 -0.66689,-0.97564 -0.23465,-0.56809 -0.23465,-1.27203 0,-0.69159 0.23465,-1.25968 0.23464,-0.56809 0.65454,-0.97563 0.41989,-0.40754 0.98798,-0.62984 0.58044,-0.2223 1.24733,-0.2223 0.61749,0 1.22263,0.247 0.61749,0.247 0.97563,0.71629 z"
       id="path2270" />
    <path
       d="m 133.46757,131.06176 h 0.037 l 2.45761,-2.54406 h 1.55608 l -2.74166,2.65521 2.9763,3.1986 h -1.60547 l -2.64286,-3.03806 h -0.037 v 3.03806 h -1.16088 v -9.33645 h 1.16088 z"
       id="path2272" />
    <path
       d="m 142.85338,130.92591 q -0.0123,-0.34579 -0.1235,-0.64219 -0.0988,-0.30874 -0.30874,-0.53104 -0.1976,-0.2223 -0.50634,-0.34579 -0.2964,-0.13585 -0.70394,-0.13585 -0.3705,0 -0.70394,0.13585 -0.3211,0.12349 -0.56809,0.34579 -0.23465,0.2223 -0.3952,0.53104 -0.14819,0.2964 -0.17289,0.64219 z m 1.17323,0.46929 q 0,0.0988 0,0.1976 0,0.0988 -0.0123,0.1976 h -4.64352 q 0.0123,0.37049 0.16054,0.70394 0.16055,0.32109 0.4199,0.56809 0.25934,0.23464 0.59279,0.37049 0.34579,0.13585 0.72864,0.13585 0.59279,0 1.02503,-0.25935 0.43224,-0.25934 0.67924,-0.62984 l 0.81509,0.65454 q -0.4693,0.61749 -1.11149,0.91389 -0.62984,0.28404 -1.40787,0.28404 -0.66689,0 -1.23498,-0.22229 -0.56809,-0.2223 -0.97564,-0.61749 -0.40754,-0.40755 -0.64219,-0.97564 -0.23464,-0.56809 -0.23464,-1.25968 0,-0.67924 0.22229,-1.24733 0.23465,-0.58044 0.64219,-0.98798 0.40755,-0.40754 0.96329,-0.62984 0.55574,-0.23465 1.19793,-0.23465 0.64219,0 1.16088,0.20995 0.53104,0.20995 0.88918,0.60514 0.3705,0.39519 0.5681,0.96328 0.19759,0.55575 0.19759,1.25968 z"
       id="path2274" />
    <path
       d="m 145.64444,129.77738 q 0,-0.23465 -0.0123,-0.60514 -0.0123,-0.37049 -0.037,-0.65454 h 1.09913 q 0.0247,0.2223 0.037,0.51869 0.0123,0.28405 0.0123,0.46929 h 0.037 q 0.247,-0.51869 0.71629,-0.82743 0.48164,-0.3211 1.07443,-0.3211 0.2717,0 0.45694,0.0494 l -0.0494,1.07443 q -0.247,-0.0617 -0.53105,-0.0617 -0.41989,0 -0.72863,0.16054 -0.30875,0.1482 -0.5187,0.40755 -0.19759,0.25934 -0.29639,0.60514 -0.0988,0.33344 -0.0988,0.70394 v 3.0751 h -1.16088 v -4.59413 z"
       id="path2276" />
    <path
       d="m 157.61136,127.24567 q -0.25934,-0.35814 -0.70394,-0.58044 -0.44459,-0.23465 -1.00033,-0.23465 -0.2964,0 -0.60514,0.0864 -0.2964,0.0741 -0.54339,0.25935 -0.247,0.1729 -0.40754,0.44459 -0.1482,0.25935 -0.1482,0.62984 0,0.35815 0.13585,0.60514 0.14819,0.23465 0.38284,0.40754 0.247,0.16055 0.56809,0.28405 0.33344,0.11115 0.70394,0.23465 0.44459,0.13584 0.90153,0.30874 0.45695,0.1729 0.82744,0.45694 0.37049,0.28405 0.60514,0.71629 0.23465,0.4199 0.23465,1.07444 0,0.67923 -0.25935,1.18558 -0.24699,0.49399 -0.66689,0.82743 -0.41989,0.3211 -0.97563,0.48164 -0.54339,0.16055 -1.12383,0.16055 -0.82744,0 -1.60548,-0.32109 -0.76569,-0.3211 -1.27203,-0.95094 l 0.95094,-0.80273 q 0.30874,0.45694 0.82743,0.74098 0.5187,0.28405 1.12384,0.28405 0.30874,0 0.61749,-0.0865 0.30874,-0.0864 0.55574,-0.2717 0.25934,-0.18524 0.41989,-0.45694 0.16055,-0.28404 0.16055,-0.67924 0,-0.39519 -0.1729,-0.65454 -0.16055,-0.27169 -0.44459,-0.45694 -0.28405,-0.18525 -0.66689,-0.30874 -0.3705,-0.13585 -0.79039,-0.2717 -0.41989,-0.1235 -0.82744,-0.29639 -0.40754,-0.18525 -0.72863,-0.45695 -0.3211,-0.28404 -0.5187,-0.69159 -0.19759,-0.40754 -0.19759,-1.01268 0,-0.65454 0.25934,-1.12383 0.2717,-0.46929 0.69159,-0.77804 0.43225,-0.30874 0.96329,-0.44459 0.54339,-0.1482 1.08678,-0.1482 0.76569,0 1.43258,0.2717 0.66689,0.27169 1.07443,0.72863 z"
       id="path2278" />
    <path
       d="m 160.66174,128.5177 1.32143,4.47063 h 0.0247 l 1.39553,-4.47063 h 1.22263 l 1.42023,4.47063 h 0.0247 l 1.32142,-4.47063 h 1.22263 l -1.93891,5.85381 h -1.21029 l -1.44492,-4.39653 h -0.0247 l -1.43258,4.39653 h -1.21028 l -1.95127,-5.85381 z"
       id="path2280" />
    <path
       d="m 173.41907,130.58012 q 0,-0.65454 -0.39519,-0.96329 -0.3952,-0.32109 -1.04974,-0.32109 -0.49399,0 -0.93858,0.19759 -0.43224,0.18525 -0.72864,0.48165 l -0.61749,-0.74099 q 0.43224,-0.40754 1.04973,-0.64219 0.62984,-0.23465 1.34613,-0.23465 0.62984,0 1.08678,0.18525 0.4693,0.1729 0.76569,0.48164 0.2964,0.30875 0.44459,0.72864 0.1482,0.41989 0.1482,0.90154 v 2.5564 q 0,0.2964 0.0123,0.62984 0.0247,0.3211 0.0741,0.53105 h -1.04973 q -0.0988,-0.4199 -0.0988,-0.83979 h -0.037 q -0.3211,0.46929 -0.81509,0.72864 -0.48164,0.25934 -1.14853,0.25934 -0.34579,0 -0.72864,-0.0988 -0.37049,-0.0864 -0.67924,-0.29639 -0.30874,-0.20995 -0.51869,-0.55574 -0.19759,-0.3458 -0.19759,-0.85214 0,-0.66689 0.35814,-1.04973 0.35814,-0.39519 0.93858,-0.59279 0.58045,-0.20995 1.30908,-0.2717 0.72864,-0.0618 1.46963,-0.0618 z m -0.28405,1.00033 q -0.43224,0 -0.90153,0.037 -0.45694,0.037 -0.83979,0.1482 -0.37049,0.11115 -0.61749,0.33344 -0.24699,0.2223 -0.24699,0.59279 0,0.25935 0.0988,0.43225 0.11115,0.17289 0.28405,0.28404 0.1729,0.11115 0.38284,0.16055 0.20995,0.037 0.43225,0.037 0.81508,0 1.24733,-0.48164 0.44459,-0.494 0.44459,-1.23498 v -0.30875 z"
       id="path2282" />
    <path
       d="m 176.46947,129.77738 q 0,-0.23465 -0.0123,-0.60514 -0.0123,-0.37049 -0.037,-0.65454 h 1.09913 q 0.0247,0.2223 0.037,0.51869 0.0123,0.28405 0.0123,0.46929 h 0.037 q 0.24699,-0.51869 0.71629,-0.82743 0.48164,-0.3211 1.07443,-0.3211 0.2717,0 0.45694,0.0494 l -0.0494,1.07443 q -0.24699,-0.0617 -0.53104,-0.0617 -0.41989,0 -0.72864,0.16054 -0.30874,0.1482 -0.51869,0.40755 -0.1976,0.25934 -0.29639,0.60514 -0.0988,0.33344 -0.0988,0.70394 v 3.0751 h -1.16088 v -4.59413 z"
       id="path2284" />
    <path
       d="m 182.07628,129.48098 q 0.22229,-0.46929 0.70393,-0.79038 0.494,-0.33345 1.16089,-0.33345 0.59279,0 1.06208,0.2717 0.48164,0.27169 0.75334,0.90153 0.29639,-0.56809 0.82743,-0.86448 0.53104,-0.30875 1.16088,-0.30875 0.56809,0 0.97564,0.1976 0.40754,0.18525 0.67924,0.50634 0.27169,0.3211 0.39519,0.75334 0.13585,0.43224 0.13585,0.92623 v 3.63085 h -1.16088 v -3.248 q 0,-0.35815 -0.0617,-0.67924 -0.0618,-0.3211 -0.20995,-0.56809 -0.1482,-0.247 -0.39519,-0.3952 -0.247,-0.14819 -0.62984,-0.14819 -0.3952,0 -0.67924,0.17289 -0.28405,0.16055 -0.46929,0.43225 -0.1729,0.25934 -0.25935,0.59279 -0.0741,0.33344 -0.0741,0.67924 v 3.16155 h -1.16088 v -3.48265 q 0,-0.34579 -0.0617,-0.62984 -0.0617,-0.28404 -0.20994,-0.48164 -0.1482,-0.20995 -0.38285,-0.32109 -0.23464,-0.1235 -0.58044,-0.1235 -0.64219,0 -1.07443,0.53104 -0.4199,0.51869 -0.4199,1.39553 v 3.11215 h -1.16088 v -4.59413 q 0,-0.23465 -0.0123,-0.60514 -0.0123,-0.37049 -0.037,-0.65454 h 1.09914 q 0.0247,0.2223 0.037,0.50634 0.0123,0.2717 0.0123,0.45694 h 0.037 z"
       id="path2286" />
    <path
       d="m 192.30189,136.01403 h -0.98798 l 0.85213,-3.08745 h 1.16088 z"
       id="path2288" />
    <path
       d="m 199.10658,134.37151 h -1.22263 v -8.74366 h 2.80341 q 0.62984,0 1.19793,0.13585 0.56809,0.12349 0.98798,0.40754 0.43225,0.28404 0.67924,0.75334 0.247,0.45694 0.247,1.12383 0,0.96328 -0.59279,1.55607 -0.59279,0.59279 -1.53138,0.75334 l 2.44526,4.01369 h -1.48197 l -2.22297,-3.89019 h -1.30908 z m 0,-4.91522 h 1.40788 q 0.43224,0 0.80274,-0.0741 0.37049,-0.0741 0.64219,-0.23465 0.28404,-0.1729 0.44459,-0.43224 0.16055,-0.2717 0.16055,-0.66689 0,-0.3952 -0.16055,-0.65454 -0.16055,-0.2717 -0.43224,-0.43224 -0.25935,-0.16055 -0.61749,-0.2223 -0.35815,-0.0741 -0.75334,-0.0741 h -1.49433 z"
       id="path2290" />
    <path
       d="m 209.54212,130.92591 q -0.0123,-0.34579 -0.12349,-0.64219 -0.0988,-0.30874 -0.30875,-0.53104 -0.1976,-0.2223 -0.50634,-0.34579 -0.2964,-0.13585 -0.70394,-0.13585 -0.37049,0 -0.70394,0.13585 -0.32109,0.12349 -0.56809,0.34579 -0.23464,0.2223 -0.39519,0.53104 -0.1482,0.2964 -0.1729,0.64219 z m 1.17324,0.46929 q 0,0.0988 0,0.1976 0,0.0988 -0.0123,0.1976 h -4.64353 q 0.0123,0.37049 0.16055,0.70394 0.16055,0.32109 0.41989,0.56809 0.25935,0.23464 0.59279,0.37049 0.3458,0.13585 0.72864,0.13585 0.59279,0 1.02503,-0.25935 0.43225,-0.25934 0.67924,-0.62984 l 0.81509,0.65454 q -0.46929,0.61749 -1.11148,0.91389 -0.62984,0.28404 -1.40788,0.28404 -0.66689,0 -1.23498,-0.22229 -0.56809,-0.2223 -0.97563,-0.61749 -0.40755,-0.40755 -0.64219,-0.97564 -0.23465,-0.56809 -0.23465,-1.25968 0,-0.67924 0.2223,-1.24733 0.23464,-0.58044 0.64219,-0.98798 0.40754,-0.40754 0.96328,-0.62984 0.55574,-0.23465 1.19793,-0.23465 0.64219,0 1.16088,0.20995 0.53104,0.20995 0.88919,0.60514 0.37049,0.39519 0.56809,0.96328 0.1976,0.55575 0.1976,1.25968 z"
       id="path2292" />
    <path
       d="m 215.0872,134.37151 h -1.25968 l -2.38351,-5.85381 h 1.28437 l 1.71663,4.60648 h 0.0247 l 1.72897,-4.60648 h 1.23498 z"
       id="path2294" />
    <path
       d="m 222.84286,130.92591 q -0.0123,-0.34579 -0.1235,-0.64219 -0.0988,-0.30874 -0.30874,-0.53104 -0.1976,-0.2223 -0.50634,-0.34579 -0.2964,-0.13585 -0.70394,-0.13585 -0.3705,0 -0.70394,0.13585 -0.3211,0.12349 -0.56809,0.34579 -0.23465,0.2223 -0.3952,0.53104 -0.14819,0.2964 -0.17289,0.64219 z m 1.17323,0.46929 q 0,0.0988 0,0.1976 0,0.0988 -0.0123,0.1976 h -4.64352 q 0.0123,0.37049 0.16054,0.70394 0.16055,0.32109 0.4199,0.56809 0.25934,0.23464 0.59279,0.37049 0.34579,0.13585 0.72864,0.13585 0.59279,0 1.02503,-0.25935 0.43224,-0.25934 0.67924,-0.62984 l 0.81509,0.65454 q -0.4693,0.61749 -1.11149,0.91389 -0.62984,0.28404 -1.40787,0.28404 -0.66689,0 -1.23498,-0.22229 -0.56809,-0.2223 -0.97564,-0.61749 -0.40754,-0.40755 -0.64219,-0.97564 -0.23464,-0.56809 -0.23464,-1.25968 0,-0.67924 0.22229,-1.24733 0.23465,-0.58044 0.64219,-0.98798 0.40755,-0.40754 0.96329,-0.62984 0.55574,-0.23465 1.19793,-0.23465 0.64219,0 1.16088,0.20995 0.53104,0.20995 0.88918,0.60514 0.3705,0.39519 0.56809,0.96328 0.1976,0.55575 0.1976,1.25968 z"
       id="path2296" />
    <path
       d="m 225.63391,129.77738 q 0,-0.23465 -0.0123,-0.60514 -0.0123,-0.37049 -0.037,-0.65454 h 1.09913 q 0.0247,0.2223 0.037,0.51869 0.0123,0.28405 0.0123,0.46929 h 0.0371 q 0.247,-0.51869 0.71629,-0.82743 0.48164,-0.3211 1.07443,-0.3211 0.2717,0 0.45695,0.0494 l -0.0494,1.07443 q -0.247,-0.0617 -0.53104,-0.0617 -0.4199,0 -0.72864,0.16054 -0.30875,0.1482 -0.51869,0.40755 -0.1976,0.25934 -0.2964,0.60514 -0.0988,0.33344 -0.0988,0.70394 v 3.0751 h -1.16088 v -4.59413 z"
       id="path2298" />
    <path
       d="m 233.26609,129.99968 q -0.1976,-0.3211 -0.55574,-0.5187 -0.35815,-0.20994 -0.80274,-0.20994 -0.1976,0 -0.3952,0.0494 -0.19759,0.0371 -0.35814,0.13585 -0.1482,0.0864 -0.247,0.23464 -0.0864,0.13585 -0.0864,0.3458 0,0.37049 0.33344,0.55574 0.33345,0.17289 1.00033,0.32109 0.4199,0.0988 0.77804,0.23465 0.35815,0.13585 0.61749,0.34579 0.2717,0.1976 0.4199,0.48164 0.14819,0.28405 0.14819,0.66689 0,0.5187 -0.19759,0.87684 -0.1976,0.35814 -0.53105,0.59279 -0.32109,0.2223 -0.74098,0.32109 -0.4199,0.0988 -0.86449,0.0988 -0.66689,0 -1.30908,-0.25934 -0.62984,-0.25935 -1.04973,-0.79039 l 0.82744,-0.70394 q 0.23464,0.3458 0.64218,0.58044 0.4199,0.23465 0.91389,0.23465 0.2223,0 0.41989,-0.037 0.20995,-0.0494 0.3705,-0.1482 0.17289,-0.0988 0.27169,-0.25934 0.0988,-0.16055 0.0988,-0.40755 0,-0.40754 -0.39519,-0.60514 -0.38285,-0.19759 -1.13618,-0.37049 -0.2964,-0.0741 -0.60514,-0.1729 -0.2964,-0.11115 -0.5434,-0.29639 -0.24699,-0.18525 -0.40754,-0.45695 -0.1482,-0.28404 -0.1482,-0.69159 0,-0.46929 0.18525,-0.80273 0.1976,-0.3458 0.50634,-0.55574 0.30875,-0.2223 0.70394,-0.3211 0.39519,-0.11115 0.81509,-0.11115 0.62984,0 1.21028,0.247 0.59279,0.247 0.91388,0.71629 z"
       id="path2300" />
    <path
       d="m 239.87321,130.92591 q -0.0123,-0.34579 -0.1235,-0.64219 -0.0988,-0.30874 -0.30874,-0.53104 -0.1976,-0.2223 -0.50634,-0.34579 -0.2964,-0.13585 -0.70394,-0.13585 -0.3705,0 -0.70394,0.13585 -0.3211,0.12349 -0.56809,0.34579 -0.23465,0.2223 -0.3952,0.53104 -0.14819,0.2964 -0.17289,0.64219 z m 1.17323,0.46929 q 0,0.0988 0,0.1976 0,0.0988 -0.0123,0.1976 h -4.64352 q 0.0123,0.37049 0.16054,0.70394 0.16055,0.32109 0.4199,0.56809 0.25934,0.23464 0.59279,0.37049 0.34579,0.13585 0.72864,0.13585 0.59279,0 1.02503,-0.25935 0.43224,-0.25934 0.67924,-0.62984 l 0.81508,0.65454 q -0.46929,0.61749 -1.11148,0.91389 -0.62984,0.28404 -1.40787,0.28404 -0.66689,0 -1.23498,-0.22229 -0.5681,-0.2223 -0.97564,-0.61749 -0.40754,-0.40755 -0.64219,-0.97564 -0.23464,-0.56809 -0.23464,-1.25968 0,-0.67924 0.22229,-1.24733 0.23465,-0.58044 0.64219,-0.98798 0.40754,-0.40754 0.96329,-0.62984 0.55574,-0.23465 1.19793,-0.23465 0.64219,0 1.16088,0.20995 0.53104,0.20995 0.88918,0.60514 0.3705,0.39519 0.56809,0.96328 0.1976,0.55575 0.1976,1.25968 z"
       id="path2302" />
    <path
       d="m 245.81344,125.62785 h 2.66756 q 0.70394,0 1.28438,0.14819 0.58044,0.13585 0.98798,0.43225 0.40755,0.29639 0.62984,0.75334 0.2223,0.45694 0.2223,1.09913 0,0.65454 -0.247,1.12383 -0.23464,0.46929 -0.66689,0.76569 -0.41989,0.29639 -1.01268,0.44459 -0.58044,0.13585 -1.25968,0.13585 h -1.38318 v 3.84079 h -1.22263 z m 1.22263,3.86548 h 1.29673 q 0.44459,0 0.81509,-0.0741 0.38284,-0.0865 0.65454,-0.247 0.27169,-0.1729 0.41989,-0.44459 0.1482,-0.2717 0.1482,-0.66689 0,-0.3952 -0.16055,-0.65454 -0.1482,-0.2717 -0.41989,-0.43224 -0.25935,-0.1729 -0.62984,-0.23465 -0.3705,-0.0741 -0.80274,-0.0741 h -1.32143 z"
       id="path2304" />
    <path
       d="m 252.53171,129.77738 q 0,-0.23465 -0.0123,-0.60514 -0.0123,-0.37049 -0.037,-0.65454 h 1.09913 q 0.0247,0.2223 0.0371,0.51869 0.0123,0.28405 0.0123,0.46929 h 0.037 q 0.247,-0.51869 0.71629,-0.82743 0.48164,-0.3211 1.07443,-0.3211 0.2717,0 0.45694,0.0494 l -0.0494,1.07443 q -0.24699,-0.0617 -0.53104,-0.0617 -0.41989,0 -0.72864,0.16054 -0.30874,0.1482 -0.51869,0.40755 -0.19759,0.25934 -0.29639,0.60514 -0.0988,0.33344 -0.0988,0.70394 v 3.0751 h -1.16088 v -4.59413 z"
       id="path2306" />
    <path
       d="m 262.70792,131.43225 q 0,0.67924 -0.247,1.24733 -0.23464,0.56809 -0.66689,0.98799 -0.41989,0.40754 -1.00033,0.64219 -0.58044,0.22229 -1.24733,0.22229 -0.66689,0 -1.24733,-0.22229 -0.58044,-0.23465 -1.00033,-0.64219 -0.4199,-0.4199 -0.66689,-0.98799 -0.23465,-0.56809 -0.23465,-1.24733 0,-0.67924 0.23465,-1.23498 0.24699,-0.56809 0.66689,-0.97563 0.41989,-0.40754 1.00033,-0.62984 0.58044,-0.23465 1.24733,-0.23465 0.66689,0 1.24733,0.23465 0.58044,0.2223 1.00033,0.62984 0.43225,0.40754 0.66689,0.97563 0.247,0.55574 0.247,1.23498 z m -1.21028,0 q 0,-0.41989 -0.13585,-0.80273 -0.1235,-0.38285 -0.37049,-0.66689 -0.247,-0.2964 -0.61749,-0.4693 -0.35815,-0.17289 -0.82744,-0.17289 -0.46929,0 -0.83979,0.17289 -0.35814,0.1729 -0.60514,0.4693 -0.24699,0.28404 -0.38284,0.66689 -0.1235,0.38284 -0.1235,0.80273 0,0.4199 0.1235,0.80274 0.13585,0.38284 0.38284,0.67924 0.247,0.29639 0.60514,0.46929 0.3705,0.1729 0.83979,0.1729 0.46929,0 0.82744,-0.1729 0.37049,-0.1729 0.61749,-0.46929 0.24699,-0.2964 0.37049,-0.67924 0.13585,-0.38284 0.13585,-0.80274 z"
       id="path2308" />
    <path
       d="m 265.62244,131.29641 -2.13651,-2.77871 h 1.43257 l 1.43258,2.01302 1.44493,-2.01302 h 1.35847 l -2.11181,2.76636 2.35881,3.08745 h -1.44493 l -1.63017,-2.28472 -1.65487,2.28472 h -1.39553 z"
       id="path2310" />
    <path
       d="m 272.72357,133.11183 h 0.0247 l 1.61783,-4.59413 h 1.23498 l -2.84046,7.23698 q -0.14819,0.3705 -0.32109,0.65454 -0.1729,0.2964 -0.40754,0.49399 -0.23465,0.20995 -0.55575,0.3211 -0.30874,0.11115 -0.74098,0.11115 -0.18525,0 -0.38285,-0.0247 -0.18524,-0.0123 -0.38284,-0.0617 l 0.11115,-1.02503 q 0.29639,0.0988 0.58044,0.0988 0.45694,0 0.67924,-0.25934 0.22229,-0.247 0.40754,-0.71629 l 0.37049,-0.97563 -2.50701,-5.85381 h 1.29673 z"
       id="path2312" />
  </g>
  <g
     aria-label="{Host,Cluster} Setup"
     id="text777"
     style="font-weight:bold;font-size:18.0042px;line-height:1.25;font-family:'Avenir Next';-inkscape-font-specification:'Avenir Next, Bold';text-align:center;text-anchor:middle;fill:#1689fc;fill-rule:evenodd;stroke-width:0.626351">
    <path
       d="m 85.681634,121.16418 q -1.134265,0 -1.80042,-0.72016 -0.666155,-0.72017 -0.666155,-1.94446 v -3.0067 q 0,-0.41409 -0.108026,-0.66615 -0.108025,-0.27007 -0.288067,-0.4141 -0.162038,-0.14403 -0.378088,-0.19805 -0.21605,-0.054 -0.432101,-0.054 v -1.98046 q 0.216051,0 0.432101,-0.054 0.21605,-0.054 0.378088,-0.18005 0.180042,-0.14403 0.288067,-0.39609 0.108026,-0.25206 0.108026,-0.63014 v -3.07872 q 0,-1.22429 0.666155,-1.94446 0.666155,-0.72016 1.80042,-0.72016 h 1.476344 v 1.89044 h -0.846197 q -0.522122,0 -0.68416,0.34208 -0.144033,0.34208 -0.144033,0.73817 v 3.0067 q 0,0.52212 -0.180042,0.90021 -0.180042,0.36008 -0.450105,0.59414 -0.252059,0.23405 -0.540126,0.36008 -0.288067,0.12603 -0.504118,0.14404 v 0.036 q 0.216051,0.018 0.504118,0.12603 0.288067,0.10803 0.540126,0.34208 0.270063,0.23406 0.450105,0.63015 0.180042,0.37809 0.180042,0.97223 v 2.93468 q 0,0.39609 0.144033,0.73817 0.162038,0.34208 0.68416,0.34208 h 0.846197 v 1.89044 z"
       id="path2315" />
    <path
       d="m 97.420355,118.35553 v -5.32924 h -4.969159 v 5.32924 h -3.078718 v -12.74697 h 3.078718 v 4.82512 h 4.969159 v -4.82512 h 3.078715 v 12.74697 z"
       id="path2317" />
    <path
       d="m 112.47187,113.83648 q 0,1.09825 -0.3961,1.99846 -0.39609,0.88221 -1.08025,1.51235 -0.68416,0.61215 -1.58437,0.95423 -0.90021,0.34208 -1.92645,0.34208 -1.00823,0 -1.92645,-0.34208 -0.90021,-0.34208 -1.58437,-0.95423 -0.66615,-0.63014 -1.06224,-1.51235 -0.3961,-0.90021 -0.3961,-1.99846 0,-1.09826 0.3961,-1.98047 0.39609,-0.8822 1.06224,-1.49435 0.68416,-0.61214 1.58437,-0.93621 0.91822,-0.32408 1.92645,-0.32408 1.02624,0 1.92645,0.32408 0.90021,0.32407 1.58437,0.93621 0.68416,0.61215 1.08025,1.49435 0.3961,0.88221 0.3961,1.98047 z m -2.84467,0 q 0,-0.43211 -0.14403,-0.8462 -0.14403,-0.4141 -0.4141,-0.72017 -0.27006,-0.32408 -0.66615,-0.52212 -0.3961,-0.19805 -0.91822,-0.19805 -0.52212,0 -0.91821,0.19805 -0.39609,0.19804 -0.66616,0.52212 -0.25206,0.30607 -0.39609,0.72017 -0.12603,0.41409 -0.12603,0.8462 0,0.4321 0.12603,0.84619 0.14403,0.4141 0.4141,0.75618 0.27006,0.32407 0.66615,0.52212 0.3961,0.19805 0.91822,0.19805 0.52212,0 0.91821,-0.19805 0.39609,-0.19805 0.66616,-0.52212 0.27006,-0.34208 0.39609,-0.75618 0.14403,-0.41409 0.14403,-0.84619 z"
       id="path2319" />
    <path
       d="m 119.61953,112.03606 q -0.36008,-0.34208 -0.8462,-0.57614 -0.48611,-0.23405 -1.02623,-0.23405 -0.4141,0 -0.77419,0.16203 -0.34208,0.16204 -0.34208,0.55813 0,0.37809 0.37809,0.54013 0.3961,0.16204 1.2603,0.36008 0.50411,0.10803 1.00823,0.30608 0.52212,0.19804 0.93622,0.52212 0.4141,0.32407 0.66616,0.79218 0.25205,0.46811 0.25205,1.11626 0,0.8462 -0.34207,1.44034 -0.34208,0.57613 -0.90021,0.93622 -0.54013,0.36008 -1.22429,0.52212 -0.68416,0.16204 -1.36832,0.16204 -1.09826,0 -2.1605,-0.34208 -1.04425,-0.36009 -1.74641,-1.04425 l 1.65639,-1.7464 q 0.39609,0.4321 0.97222,0.72016 0.57614,0.28807 1.22429,0.28807 0.36008,0 0.70216,-0.16204 0.36009,-0.18004 0.36009,-0.61214 0,-0.4141 -0.43211,-0.61214 -0.4321,-0.19805 -1.35031,-0.4141 -0.46811,-0.10802 -0.93622,-0.28807 -0.46811,-0.18004 -0.8462,-0.48611 -0.36008,-0.30607 -0.59413,-0.75618 -0.23406,-0.4501 -0.23406,-1.08025 0,-0.81019 0.34208,-1.36832 0.34208,-0.57613 0.88221,-0.93622 0.54012,-0.36008 1.18827,-0.52212 0.66616,-0.18004 1.31431,-0.18004 1.00824,0 1.96246,0.32408 0.97222,0.30607 1.63838,0.93621 z"
       id="path2321" />
    <path
       d="m 126.047,111.60395 v 3.4208 q 0,0.63015 0.23405,0.95423 0.25206,0.30607 0.88221,0.30607 0.21605,0 0.4501,-0.036 0.25206,-0.036 0.4141,-0.10803 l 0.036,2.16051 q -0.30607,0.10802 -0.77418,0.18004 -0.46811,0.09 -0.93622,0.09 -0.90021,0 -1.51235,-0.21605 -0.61215,-0.23405 -0.99023,-0.64815 -0.36009,-0.4321 -0.52213,-1.00824 -0.16203,-0.59414 -0.16203,-1.3143 v -3.78089 h -1.44034 v -2.21451 h 1.42233 v -2.35855 h 2.89868 v 2.35855 h 2.10649 v 2.21451 z"
       id="path2323" />
    <path
       d="m 131.17819,120.58805 h -2.43056 l 1.35031,-5.11319 h 2.82666 z"
       id="path2325" />
    <path
       d="m 146.31971,116.59112 q -0.8462,0.97222 -2.08849,1.54836 -1.24229,0.55813 -2.86266,0.55813 -1.47635,0 -2.73664,-0.48611 -1.24229,-0.48612 -2.16051,-1.36832 -0.91821,-0.90021 -1.44033,-2.1425 -0.52213,-1.24229 -0.52213,-2.73664 0,-1.53036 0.52213,-2.77265 0.54012,-1.24229 1.47634,-2.10649 0.93622,-0.88221 2.19651,-1.35031 1.2603,-0.46811 2.71864,-0.46811 1.35031,0 2.64662,0.48611 1.3143,0.46811 2.12449,1.38632 l -2.08849,2.08849 q -0.4321,-0.59414 -1.13426,-0.88221 -0.70216,-0.28806 -1.44034,-0.28806 -0.81019,0 -1.49435,0.30607 -0.66615,0.28807 -1.15226,0.81019 -0.48612,0.52212 -0.75618,1.24229 -0.27006,0.70216 -0.27006,1.54836 0,0.8642 0.27006,1.58437 0.27006,0.72017 0.73817,1.24229 0.48611,0.50412 1.15227,0.79218 0.66616,0.28807 1.45834,0.28807 0.91821,0 1.60237,-0.36008 0.68416,-0.36009 1.09826,-0.93622 z"
       id="path2327" />
    <path
       d="m 147.50797,118.35553 v -13.61118 h 2.9887 v 13.61118 z"
       id="path2329" />
    <path
       d="m 158.74256,118.35553 v -1.24229 h -0.036 q -0.16203,0.30607 -0.4321,0.57613 -0.25206,0.27007 -0.61214,0.46811 -0.34208,0.19805 -0.77418,0.32408 -0.4141,0.12603 -0.88221,0.12603 -0.90021,0 -1.53035,-0.32408 -0.61215,-0.32407 -1.00824,-0.82819 -0.37809,-0.52212 -0.55813,-1.17027 -0.16204,-0.66616 -0.16204,-1.35032 v -5.54529 h 2.9707 v 4.86113 q 0,0.37809 0.054,0.72017 0.054,0.34208 0.19805,0.61214 0.16203,0.27007 0.41409,0.4321 0.25206,0.14404 0.66616,0.14404 0.77418,0 1.17027,-0.57614 0.4141,-0.57613 0.4141,-1.35031 v -4.84313 h 2.95269 v 8.96609 z"
       id="path2331" />
    <path
       d="m 169.16697,112.03606 q -0.36009,-0.34208 -0.8462,-0.57614 -0.48611,-0.23405 -1.02624,-0.23405 -0.4141,0 -0.77418,0.16203 -0.34208,0.16204 -0.34208,0.55813 0,0.37809 0.37809,0.54013 0.39609,0.16204 1.26029,0.36008 0.50412,0.10803 1.00824,0.30608 0.52212,0.19804 0.93621,0.52212 0.4141,0.32407 0.66616,0.79218 0.25206,0.46811 0.25206,1.11626 0,0.8462 -0.34208,1.44034 -0.34208,0.57613 -0.90021,0.93622 -0.54013,0.36008 -1.22429,0.52212 -0.68416,0.16204 -1.36832,0.16204 -1.09825,0 -2.1605,-0.34208 -1.04424,-0.36009 -1.74641,-1.04425 l 1.65639,-1.7464 q 0.39609,0.4321 0.97223,0.72016 0.57613,0.28807 1.22428,0.28807 0.36009,0 0.70217,-0.16204 0.36008,-0.18004 0.36008,-0.61214 0,-0.4141 -0.4321,-0.61214 -0.4321,-0.19805 -1.35032,-0.4141 -0.46811,-0.10802 -0.93621,-0.28807 -0.46811,-0.18004 -0.8462,-0.48611 -0.36009,-0.30607 -0.59414,-0.75618 -0.23406,-0.4501 -0.23406,-1.08025 0,-0.81019 0.34208,-1.36832 0.34208,-0.57613 0.88221,-0.93622 0.54013,-0.36008 1.18828,-0.52212 0.66615,-0.18004 1.3143,-0.18004 1.00824,0 1.96246,0.32408 0.97223,0.30607 1.63838,0.93621 z"
       id="path2333" />
    <path
       d="m 175.59444,111.60395 v 3.4208 q 0,0.63015 0.23405,0.95423 0.25206,0.30607 0.88221,0.30607 0.21605,0 0.4501,-0.036 0.25206,-0.036 0.4141,-0.10803 l 0.036,2.16051 q -0.30607,0.10802 -0.77418,0.18004 -0.46811,0.09 -0.93622,0.09 -0.90021,0 -1.51235,-0.21605 -0.61215,-0.23405 -0.99023,-0.64815 -0.36009,-0.4321 -0.52213,-1.00824 -0.16203,-0.59414 -0.16203,-1.3143 v -3.78089 h -1.44034 v -2.21451 h 1.42233 v -2.35855 h 2.89868 v 2.35855 h 2.10649 v 2.21451 z"
       id="path2335" />
    <path
       d="m 185.26269,112.84624 q 0,-0.70216 -0.45011,-1.20628 -0.4321,-0.50411 -1.3143,-0.50411 -0.43211,0 -0.79219,0.14403 -0.36008,0.12603 -0.63015,0.36008 -0.27006,0.23406 -0.4321,0.55813 -0.16204,0.30607 -0.18004,0.64815 z m 2.71863,1.13427 q 0,0.18004 0,0.36008 0,0.18005 -0.018,0.34208 h -6.49952 q 0.036,0.37809 0.21605,0.68416 0.19805,0.30607 0.48611,0.54013 0.30608,0.21605 0.66616,0.34208 0.37809,0.12603 0.77418,0.12603 0.70216,0 1.18828,-0.25206 0.48611,-0.27006 0.79218,-0.68416 l 2.05248,1.2963 q -0.63015,0.91822 -1.67439,1.42233 -1.02624,0.48612 -2.39456,0.48612 -1.00823,0 -1.90844,-0.30607 -0.90021,-0.32408 -1.58437,-0.91822 -0.66616,-0.61214 -1.06225,-1.49435 -0.37809,-0.8822 -0.37809,-2.01647 0,-1.09825 0.37809,-1.98046 0.37809,-0.90021 1.02624,-1.51235 0.64815,-0.63015 1.53036,-0.97223 0.8822,-0.34208 1.90844,-0.34208 0.99023,0 1.81843,0.34208 0.82819,0.32408 1.42233,0.95422 0.59414,0.63015 0.91821,1.53036 0.34208,0.90021 0.34208,2.05248 z"
       id="path2337" />
    <path
       d="m 195.63309,111.802 q -0.19805,-0.054 -0.3961,-0.072 -0.18004,-0.018 -0.36008,-0.018 -0.59414,0 -1.00823,0.21605 -0.3961,0.21605 -0.64816,0.52212 -0.23405,0.30607 -0.34208,0.66616 -0.10802,0.36008 -0.10802,0.63014 v 4.60908 h -2.95269 v -8.96609 h 2.84466 v 1.2963 h 0.036 q 0.34208,-0.68416 0.97223,-1.11626 0.63015,-0.4321 1.45834,-0.4321 0.18004,0 0.34208,0.018 0.18004,0.018 0.28807,0.054 z"
       id="path2339" />
    <path
       d="m 201.84453,114.16055 q -0.21605,0 -0.4321,0.054 -0.21605,0.054 -0.39609,0.19805 -0.16204,0.14403 -0.27006,0.4141 -0.10803,0.25206 -0.10803,0.66615 v 3.0067 q 0,1.22429 -0.66615,1.94446 -0.66616,0.72016 -1.80042,0.72016 h -1.47635 v -1.89044 h 0.8462 q 0.52212,0 0.66616,-0.34208 0.16203,-0.34208 0.16203,-0.73817 v -2.93468 q 0,-0.59414 0.18005,-0.97223 0.18004,-0.39609 0.4321,-0.63015 0.27006,-0.23405 0.55813,-0.34208 0.28806,-0.10802 0.50411,-0.12603 v -0.036 q -0.21605,-0.018 -0.50411,-0.14404 -0.28807,-0.12603 -0.55813,-0.36008 -0.25206,-0.23406 -0.4321,-0.59414 -0.18005,-0.37809 -0.18005,-0.90021 v -3.0067 q 0,-0.39609 -0.16203,-0.73817 -0.14404,-0.34208 -0.66616,-0.34208 h -0.8462 v -1.89044 h 1.47635 q 1.13426,0 1.80042,0.72016 0.66615,0.72017 0.66615,1.94446 v 3.07872 q 0,0.37808 0.10803,0.63014 0.10802,0.25206 0.27006,0.39609 0.18004,0.12603 0.39609,0.18005 0.21605,0.054 0.4321,0.054 v 1.98046 z"
       id="path2341" />
    <path
       d="m 214.50143,108.92133 q -0.39609,-0.50412 -1.04424,-0.79219 -0.63015,-0.30607 -1.22429,-0.30607 -0.30607,0 -0.63014,0.054 -0.30608,0.054 -0.55813,0.21605 -0.25206,0.14403 -0.4321,0.39609 -0.16204,0.23405 -0.16204,0.61214 0,0.32408 0.12603,0.54013 0.14403,0.21605 0.39609,0.37809 0.27006,0.16203 0.63015,0.30607 0.36008,0.12603 0.81019,0.27006 0.64815,0.21605 1.35031,0.48611 0.70216,0.25206 1.2783,0.68416 0.57613,0.4321 0.95422,1.08025 0.37809,0.63015 0.37809,1.58437 0,1.09826 -0.4141,1.90845 -0.39609,0.79218 -1.08025,1.31431 -0.68416,0.52212 -1.56636,0.77418 -0.88221,0.25206 -1.81843,0.25206 -1.36832,0 -2.64662,-0.46811 -1.27829,-0.48612 -2.12449,-1.36832 l 2.01647,-2.05248 q 0.46811,0.57613 1.22428,0.97222 0.77418,0.37809 1.53036,0.37809 0.34208,0 0.66616,-0.072 0.32407,-0.072 0.55813,-0.23406 0.25206,-0.16204 0.39609,-0.4321 0.14403,-0.27006 0.14403,-0.64815 0,-0.36008 -0.18004,-0.61214 -0.18004,-0.25206 -0.52212,-0.45011 -0.32408,-0.21605 -0.82819,-0.37809 -0.48612,-0.18004 -1.11626,-0.37808 -0.61215,-0.19805 -1.20629,-0.46811 -0.57613,-0.27007 -1.04424,-0.68416 -0.4501,-0.4321 -0.73817,-1.02624 -0.27006,-0.61215 -0.27006,-1.47635 0,-1.06224 0.4321,-1.81842 0.4321,-0.75618 1.13426,-1.24229 0.70216,-0.48611 1.58437,-0.70216 0.88221,-0.23406 1.78242,-0.23406 1.08025,0 2.19651,0.39609 1.13426,0.3961 1.98046,1.17028 z"
       id="path2343" />
    <path
       d="m 224.42174,112.84624 q 0,-0.70216 -0.4501,-1.20628 -0.4321,-0.50411 -1.31431,-0.50411 -0.4321,0 -0.79218,0.14403 -0.36009,0.12603 -0.63015,0.36008 -0.27006,0.23406 -0.4321,0.55813 -0.16204,0.30607 -0.18004,0.64815 z m 2.71864,1.13427 q 0,0.18004 0,0.36008 0,0.18005 -0.018,0.34208 h -6.49951 q 0.036,0.37809 0.21605,0.68416 0.19804,0.30607 0.48611,0.54013 0.30607,0.21605 0.66616,0.34208 0.37809,0.12603 0.77418,0.12603 0.70216,0 1.18828,-0.25206 0.48611,-0.27006 0.79218,-0.68416 l 2.05248,1.2963 q -0.63015,0.91822 -1.67439,1.42233 -1.02624,0.48612 -2.39456,0.48612 -1.00824,0 -1.90845,-0.30607 -0.90021,-0.32408 -1.58437,-0.91822 -0.66615,-0.61214 -1.06224,-1.49435 -0.37809,-0.8822 -0.37809,-2.01647 0,-1.09825 0.37809,-1.98046 0.37809,-0.90021 1.02624,-1.51235 0.64815,-0.63015 1.53035,-0.97223 0.88221,-0.34208 1.90845,-0.34208 0.99023,0 1.81842,0.34208 0.8282,0.32408 1.42233,0.95422 0.59414,0.63015 0.91822,1.53036 0.34208,0.90021 0.34208,2.05248 z"
       id="path2345" />
    <path
       d="m 232.18152,111.60395 v 3.4208 q 0,0.63015 0.23405,0.95423 0.25206,0.30607 0.88221,0.30607 0.21605,0 0.45011,-0.036 0.25205,-0.036 0.41409,-0.10803 l 0.036,2.16051 q -0.30607,0.10802 -0.77418,0.18004 -0.46811,0.09 -0.93622,0.09 -0.90021,0 -1.51235,-0.21605 -0.61214,-0.23405 -0.99023,-0.64815 -0.36009,-0.4321 -0.52212,-1.00824 -0.16204,-0.59414 -0.16204,-1.3143 v -3.78089 h -1.44034 v -2.21451 h 1.42233 v -2.35855 h 2.89868 v 2.35855 h 2.10649 v 2.21451 z"
       id="path2347" />
    <path
       d="m 241.57972,118.35553 v -1.24229 h -0.036 q -0.16204,0.30607 -0.4321,0.57613 -0.25206,0.27007 -0.61214,0.46811 -0.34208,0.19805 -0.77418,0.32408 -0.4141,0.12603 -0.88221,0.12603 -0.90021,0 -1.53035,-0.32408 -0.61215,-0.32407 -1.00824,-0.82819 -0.37809,-0.52212 -0.55813,-1.17027 -0.16204,-0.66616 -0.16204,-1.35032 v -5.54529 h 2.9707 v 4.86113 q 0,0.37809 0.054,0.72017 0.054,0.34208 0.19804,0.61214 0.16204,0.27007 0.4141,0.4321 0.25206,0.14404 0.66616,0.14404 0.77418,0 1.17027,-0.57614 0.4141,-0.57613 0.4141,-1.35031 v -4.84313 h 2.95268 v 8.96609 z"
       id="path2349" />
    <path
       d="m 256.70322,113.83648 q 0,0.93621 -0.28807,1.80042 -0.28806,0.8642 -0.84619,1.53035 -0.54013,0.64815 -1.33231,1.04425 -0.79219,0.39609 -1.80042,0.39609 -0.8282,0 -1.56637,-0.32408 -0.73817,-0.34208 -1.15227,-0.91821 h -0.036 v 5.31124 h -2.95269 v -13.2871 h 2.80866 v 1.09825 h 0.054 q 0.4141,-0.54012 1.13427,-0.93621 0.73817,-0.4141 1.7284,-0.4141 0.97223,0 1.76441,0.37809 0.79219,0.37809 1.33231,1.02624 0.55813,0.64815 0.8462,1.51235 0.30607,0.8462 0.30607,1.78242 z m -2.86267,0 q 0,-0.43211 -0.14403,-0.8462 -0.12603,-0.4141 -0.39609,-0.72017 -0.25206,-0.32408 -0.64815,-0.52212 -0.3961,-0.19805 -0.91822,-0.19805 -0.50412,0 -0.90021,0.19805 -0.39609,0.19804 -0.68416,0.52212 -0.27006,0.32408 -0.4321,0.73817 -0.14403,0.4141 -0.14403,0.8462 0,0.4321 0.14403,0.8462 0.16204,0.41409 0.4321,0.73817 0.28807,0.32407 0.68416,0.52212 0.39609,0.19805 0.90021,0.19805 0.52212,0 0.91822,-0.19805 0.39609,-0.19805 0.64815,-0.52212 0.27006,-0.32408 0.39609,-0.73817 0.14403,-0.4321 0.14403,-0.8642 z"
       id="path2351" />
  </g>
</svg>
