<?xml version="1.0" encoding="UTF-8" standalone="no"?>
<svg
   xmlns:dc="http://purl.org/dc/elements/1.1/"
   xmlns:cc="http://creativecommons.org/ns#"
   xmlns:rdf="http://www.w3.org/1999/02/22-rdf-syntax-ns#"
   xmlns:svg="http://www.w3.org/2000/svg"
   xmlns="http://www.w3.org/2000/svg"
   xmlns:xlink="http://www.w3.org/1999/xlink"
   id="svg8"
   version="1.1"
   viewBox="0 0 338.66666 169.33333"
   height="169.33333mm"
   width="338.66666mm">
  <defs
     id="defs2">
    <linearGradient
       id="linearGradient1327">
      <stop
         id="stop1323"
         offset="0"
         style="stop-color:#f9f9f9;stop-opacity:1" />
      <stop
         id="stop1325"
         offset="1"
         style="stop-color:#b3b3b3;stop-opacity:0;" />
    </linearGradient>
    <linearGradient
       gradientTransform="matrix(-1,0,0,1,176.89285,0)"
       gradientUnits="userSpaceOnUse"
       y2="140.17946"
       x2="155.04086"
       y1="19.834677"
       x1="-109.17165"
       id="linearGradient1329"
       xlink:href="#linearGradient1327" />
  </defs>
  <metadata
     id="metadata5">
    <rdf:RDF>
      <cc:Work
         rdf:about="">
        <dc:format>image/svg+xml</dc:format>
        <dc:type
           rdf:resource="http://purl.org/dc/dcmitype/StillImage" />
        <dc:title></dc:title>
      </cc:Work>
    </rdf:RDF>
  </metadata>
  <g
     transform="translate(80.886902,-33.261902)"
     id="layer1">
    <path
       d="M 257.49707,33.261902 H -80.604222 c -0.15661,0 -0.28268,0.126077 -0.28268,0.282684 V 202.31255 c 0,0.1566 0.12607,0.28268 0.28268,0.28268 H 257.49707 c 0.1566,0 0.28268,-0.12608 0.28268,-0.28268 V 33.544586 c 0,-0.156607 -0.12608,-0.282684 -0.28268,-0.282684 z"
       style="fill:url(#linearGradient1329);fill-opacity:1;stroke-width:6.60818"
       id="rect833" />
    <g
       style="font-style:normal;font-weight:normal;font-size:27.029px;line-height:1.25;font-family:sans-serif;fill:#1689fc;fill-opacity:1;stroke:#000000;stroke-width:0.675725;stroke-opacity:0"
       id="text837"
       aria-label="Basic Host Setup
">
      <path
         id="path1217"
         style="font-style:normal;font-variant:normal;font-weight:800;font-stretch:normal;font-size:27.029px;font-family:Avenir;-inkscape-font-specification:'Avenir Ultra-Bold';font-variant-ligatures:normal;font-variant-caps:normal;font-variant-numeric:normal;font-variant-east-asian:normal;fill:#1689fc;fill-opacity:1;stroke:#000000;stroke-width:0.675725;stroke-opacity:0"
         d="m -17.974349,138.07123 h 7.135656 q 1.2433339,0 2.4866679,0.18921 1.2703629,0.16217 2.2704359,0.70275 1.000073,0.51355 1.62174,1.45957 0.6216669,0.94601 0.6216669,2.51369 0,1.62174 -0.9189859,2.7029 -0.891957,1.05413 -2.378552,1.51363 v 0.054 q 0.946015,0.13515 1.702827,0.54058 0.783841,0.37841 1.3244209,1.00008 0.567609,0.59463 0.864928,1.4055 0.297319,0.81087 0.297319,1.72986 0,1.51362 -0.648696,2.54073 -0.6486959,1.00007 -1.6757979,1.62174 -1.027102,0.62166 -2.324494,0.89195 -1.2703629,0.27029 -2.5407258,0.27029 h -7.83841 z m 4.216524,7.64921 h 3.054277 q 0.486522,0 0.9460149,-0.10812 0.486522,-0.10811 0.864928,-0.35137 0.378406,-0.24327 0.594638,-0.6487 0.2432609,-0.40544 0.2432609,-0.97304 0,-0.59464 -0.2702899,-0.97305 -0.243261,-0.40543 -0.648696,-0.62166 -0.405435,-0.21624 -0.918986,-0.29732 -0.5135509,-0.10812 -1.0000729,-0.10812 h -2.865074 z m 0,7.9195 h 3.7840599 q 0.486522,0 0.973044,-0.10812 0.513551,-0.10812 0.9189859,-0.37841 0.405435,-0.27029 0.648696,-0.70275 0.27029,-0.43246 0.27029,-1.05413 0,-0.67573 -0.351377,-1.08116 -0.324348,-0.43247 -0.8378989,-0.6487 -0.513551,-0.21623 -1.108189,-0.29732 -0.5946379,-0.0811 -1.1081889,-0.0811 h -3.189422 z" />
      <path
         id="path1219"
         style="font-style:normal;font-variant:normal;font-weight:800;font-stretch:normal;font-size:27.029px;font-family:Avenir;-inkscape-font-specification:'Avenir Ultra-Bold';font-variant-ligatures:normal;font-variant-caps:normal;font-variant-numeric:normal;font-variant-east-asian:normal;fill:#1689fc;fill-opacity:1;stroke:#000000;stroke-width:0.675725;stroke-opacity:0"
         d="M 7.282562,155.55899 H 7.228504 q -0.675725,1.05414 -1.810943,1.51363 -1.108189,0.45949 -2.3515229,0.45949 -0.918986,0 -1.783914,-0.27029 -0.83789898,-0.24326 -1.48659496,-0.75681 -0.64869599,-0.51355 -1.02710194,-1.27036 -0.378406,-0.75682 -0.378406,-1.75689 0,-1.13522 0.405435,-1.91906 0.43246395,-0.78384 1.13521793,-1.29739 0.72978299,-0.51355 1.64876897,-0.78384 0.918986,-0.29732 1.8920299,-0.43246 1.000073,-0.13515 1.973117,-0.16218 1.000073,-0.027 1.837972,-0.027 0,-1.08116 -0.783841,-1.70282 -0.756812,-0.6487 -1.810943,-0.6487 -1.000073,0 -1.8379719,0.43246 -0.81087,0.40544 -1.459566,1.13522 l -2.16231995,-2.21638 q 1.13521797,-1.05413 2.64884195,-1.56768 1.5136239,-0.54058 3.1353639,-0.54058 1.783914,0 2.9191319,0.45949 1.162247,0.43247 1.837972,1.2974 0.7027541,0.86492 0.9730441,2.13529 0.27029,1.24333 0.27029,2.8921 v 6.67616 H 7.282562 Z m -1.000073,-4.1084 q -0.459493,0 -1.162247,0.054 -0.675725,0.027 -1.324421,0.21624 -0.6216669,0.1892 -1.0811599,0.56761 -0.432464,0.3784 -0.432464,1.05413 0,0.72978 0.621667,1.08116 0.6216669,0.35137 1.2973919,0.35137 0.594638,0 1.135218,-0.16217 0.567609,-0.16217 1.000073,-0.45949 0.432464,-0.29732 0.675725,-0.75682 0.27029,-0.45949 0.27029,-1.08116 v -0.86492 z" />
      <path
         id="path1221"
         style="font-style:normal;font-variant:normal;font-weight:800;font-stretch:normal;font-size:27.029px;font-family:Avenir;-inkscape-font-specification:'Avenir Ultra-Bold';font-variant-ligatures:normal;font-variant-caps:normal;font-variant-numeric:normal;font-variant-east-asian:normal;fill:#1689fc;fill-opacity:1;stroke:#000000;stroke-width:0.675725;stroke-opacity:0"
         d="m 20.989219,147.93682 q -0.891957,-1.10819 -2.351523,-1.10819 -0.513551,0 -1.000073,0.24326 -0.486522,0.24326 -0.486522,0.8379 0,0.48652 0.486522,0.72978 0.513551,0.21623 1.270363,0.40544 0.783841,0.16217 1.648769,0.3784 0.891957,0.1892 1.648769,0.62167 0.783841,0.43246 1.270363,1.18927 0.513551,0.72979 0.513551,1.97312 0,1.27036 -0.567609,2.10826 -0.54058,0.81087 -1.405508,1.32442 -0.864928,0.48653 -1.946088,0.67573 -1.08116,0.21623 -2.135291,0.21623 -1.378479,0 -2.783987,-0.3784 -1.405508,-0.40544 -2.378552,-1.40551 l 2.459639,-2.72993 q 0.567609,0.70275 1.243334,1.08116 0.702754,0.35138 1.62174,0.35138 0.702754,0 1.270363,-0.18921 0.567609,-0.21623 0.567609,-0.75681 0,-0.51355 -0.513551,-0.75681 -0.486522,-0.27029 -1.270363,-0.43247 -0.756812,-0.1892 -1.648769,-0.3784 -0.864928,-0.21623 -1.648769,-0.62167 -0.756812,-0.40543 -1.270363,-1.13522 -0.486522,-0.75681 -0.486522,-2.00014 0,-1.16225 0.459493,-2.00015 0.486522,-0.8379 1.243334,-1.37848 0.783841,-0.54058 1.783914,-0.78384 1.000073,-0.27029 2.027175,-0.27029 1.297392,0 2.621813,0.37841 1.324421,0.3784 2.243407,1.35145 z" />
      <path
         id="path1223"
         style="font-style:normal;font-variant:normal;font-weight:800;font-stretch:normal;font-size:27.029px;font-family:Avenir;-inkscape-font-specification:'Avenir Ultra-Bold';font-variant-ligatures:normal;font-variant-caps:normal;font-variant-numeric:normal;font-variant-east-asian:normal;fill:#1689fc;fill-opacity:1;stroke:#000000;stroke-width:0.675725;stroke-opacity:0"
         d="m 26.121776,144.07167 h 4.05435 v 13.13609 h -4.05435 z m -0.324348,-4.13544 q 0,-0.97304 0.675725,-1.64877 0.702754,-0.70275 1.675798,-0.70275 0.973044,0 1.648769,0.70275 0.702754,0.67573 0.702754,1.64877 0,0.97305 -0.702754,1.6758 -0.675725,0.67573 -1.648769,0.67573 -0.973044,0 -1.675798,-0.67573 -0.675725,-0.70275 -0.675725,-1.6758 z" />
      <path
         id="path1225"
         style="font-style:normal;font-variant:normal;font-weight:800;font-stretch:normal;font-size:27.029px;font-family:Avenir;-inkscape-font-specification:'Avenir Ultra-Bold';font-variant-ligatures:normal;font-variant-caps:normal;font-variant-numeric:normal;font-variant-east-asian:normal;fill:#1689fc;fill-opacity:1;stroke:#000000;stroke-width:0.675725;stroke-opacity:0"
         d="m 41.981461,148.31522 q -0.297319,-0.43246 -0.837899,-0.70275 -0.54058,-0.29732 -1.162247,-0.29732 -1.540653,0 -2.405581,0.91899 -0.837899,0.91898 -0.837899,2.40558 0,1.48659 0.837899,2.40558 0.864928,0.91898 2.405581,0.91898 0.675725,0 1.162247,-0.29732 0.486522,-0.29731 0.837899,-0.70275 l 2.675871,2.81102 q -0.946015,0.97304 -2.243407,1.37848 -1.270363,0.3784 -2.43261,0.3784 -1.513624,0 -2.865074,-0.48652 -1.324421,-0.48652 -2.324494,-1.37848 -0.973044,-0.91899 -1.540653,-2.18935 -0.567609,-1.27036 -0.567609,-2.83804 0,-1.56769 0.567609,-2.83805 0.567609,-1.27036 1.540653,-2.16232 1.000073,-0.91898 2.324494,-1.40551 1.35145,-0.48652 2.865074,-0.48652 1.162247,0 2.43261,0.40544 1.297392,0.3784 2.243407,1.35145 z" />
      <path
         id="path1227"
         style="font-style:normal;font-variant:normal;font-weight:800;font-stretch:normal;font-size:27.029px;font-family:Avenir;-inkscape-font-specification:'Avenir Ultra-Bold';font-variant-ligatures:normal;font-variant-caps:normal;font-variant-numeric:normal;font-variant-east-asian:normal;fill:#1689fc;fill-opacity:1;stroke:#000000;stroke-width:0.675725;stroke-opacity:0"
         d="m 54.666085,138.07123 h 4.216524 v 7.13566 h 8.189787 v -7.13566 h 4.216524 v 19.13653 h -4.216524 v -8.27087 h -8.189787 v 8.27087 h -4.216524 z" />
      <path
         id="path1229"
         style="font-style:normal;font-variant:normal;font-weight:800;font-stretch:normal;font-size:27.029px;font-family:Avenir;-inkscape-font-specification:'Avenir Ultra-Bold';font-variant-ligatures:normal;font-variant-caps:normal;font-variant-numeric:normal;font-variant-east-asian:normal;fill:#1689fc;fill-opacity:1;stroke:#000000;stroke-width:0.675725;stroke-opacity:0"
         d="m 74.201718,150.63972 q 0,-1.56769 0.567609,-2.83805 0.567609,-1.27036 1.540653,-2.16232 1.000073,-0.91898 2.324494,-1.40551 1.35145,-0.48652 2.865074,-0.48652 1.513624,0 2.838045,0.48652 1.35145,0.48653 2.324494,1.40551 1.000073,0.89196 1.567682,2.16232 0.567609,1.27036 0.567609,2.83805 0,1.56768 -0.567609,2.83804 -0.567609,1.27036 -1.567682,2.18935 -0.973044,0.89196 -2.324494,1.37848 -1.324421,0.48652 -2.838045,0.48652 -1.513624,0 -2.865074,-0.48652 -1.324421,-0.48652 -2.324494,-1.37848 -0.973044,-0.91899 -1.540653,-2.18935 -0.567609,-1.27036 -0.567609,-2.83804 z m 4.05435,0 q 0,1.48659 0.837899,2.40558 0.864928,0.91898 2.405581,0.91898 1.540653,0 2.378552,-0.91898 0.864928,-0.91899 0.864928,-2.40558 0,-1.4866 -0.864928,-2.40558 -0.837899,-0.91899 -2.378552,-0.91899 -1.540653,0 -2.405581,0.91899 -0.837899,0.91898 -0.837899,2.40558 z" />
      <path
         id="path1231"
         style="font-style:normal;font-variant:normal;font-weight:800;font-stretch:normal;font-size:27.029px;font-family:Avenir;-inkscape-font-specification:'Avenir Ultra-Bold';font-variant-ligatures:normal;font-variant-caps:normal;font-variant-numeric:normal;font-variant-east-asian:normal;fill:#1689fc;fill-opacity:1;stroke:#000000;stroke-width:0.675725;stroke-opacity:0"
         d="m 98.592009,147.93682 q -0.891957,-1.10819 -2.351523,-1.10819 -0.51355,0 -1.000072,0.24326 -0.486522,0.24326 -0.486522,0.8379 0,0.48652 0.486522,0.72978 0.513551,0.21623 1.270362,0.40544 0.783841,0.16217 1.648769,0.3784 0.891957,0.1892 1.648769,0.62167 0.783846,0.43246 1.270366,1.18927 0.51355,0.72979 0.51355,1.97312 0,1.27036 -0.56761,2.10826 -0.54058,0.81087 -1.405509,1.32442 -0.864928,0.48653 -1.946088,0.67573 -1.08116,0.21623 -2.13529,0.21623 -1.378479,0 -2.783987,-0.3784 -1.405508,-0.40544 -2.378552,-1.40551 l 2.459639,-2.72993 q 0.567609,0.70275 1.243334,1.08116 0.702754,0.35138 1.62174,0.35138 0.702753,0 1.270362,-0.18921 0.567609,-0.21623 0.567609,-0.75681 0,-0.51355 -0.513551,-0.75681 -0.486522,-0.27029 -1.270362,-0.43247 -0.756812,-0.1892 -1.648769,-0.3784 -0.864928,-0.21623 -1.648769,-0.62167 -0.756812,-0.40543 -1.270363,-1.13522 -0.486522,-0.75681 -0.486522,-2.00014 0,-1.16225 0.459493,-2.00015 0.486522,-0.8379 1.243334,-1.37848 0.783841,-0.54058 1.783914,-0.78384 1.000073,-0.27029 2.027174,-0.27029 1.297392,0 2.621813,0.37841 1.32442,0.3784 2.24341,1.35145 z" />
      <path
         id="path1233"
         style="font-style:normal;font-variant:normal;font-weight:800;font-stretch:normal;font-size:27.029px;font-family:Avenir;-inkscape-font-specification:'Avenir Ultra-Bold';font-variant-ligatures:normal;font-variant-caps:normal;font-variant-numeric:normal;font-variant-east-asian:normal;fill:#1689fc;fill-opacity:1;stroke:#000000;stroke-width:0.675725;stroke-opacity:0"
         d="m 112.61711,147.31515 h -3.56783 v 4.3787 q 0,0.54058 0.0541,1.00007 0.0541,0.43246 0.24326,0.75681 0.1892,0.32435 0.56761,0.51355 0.40543,0.16218 1.05413,0.16218 0.32435,0 0.8379,-0.0541 0.54058,-0.0811 0.81087,-0.32435 v 3.37863 q -0.67573,0.24326 -1.40551,0.32434 -0.72978,0.0811 -1.43254,0.0811 -1.0271,0 -1.89203,-0.21623 -0.86492,-0.21623 -1.51362,-0.67573 -0.6487,-0.48652 -1.0271,-1.24333 -0.35138,-0.75681 -0.35138,-1.83797 v -6.2437 h -2.59478 v -3.24348 h 2.59478 v -3.89218 h 4.05435 v 3.89218 h 3.56783 z" />
      <path
         id="path1235"
         style="font-style:normal;font-variant:normal;font-weight:800;font-stretch:normal;font-size:27.029px;font-family:Avenir;-inkscape-font-specification:'Avenir Ultra-Bold';font-variant-ligatures:normal;font-variant-caps:normal;font-variant-numeric:normal;font-variant-east-asian:normal;fill:#1689fc;fill-opacity:1;stroke:#000000;stroke-width:0.675725;stroke-opacity:0"
         d="m 132.64898,142.74725 q -0.51355,-0.6487 -1.40551,-0.94602 -0.86493,-0.32434 -1.64877,-0.32434 -0.45949,0 -0.94601,0.10811 -0.48653,0.10812 -0.91899,0.35138 -0.43246,0.21623 -0.70275,0.59464 -0.27029,0.3784 -0.27029,0.91898 0,0.86493 0.64869,1.32442 0.6487,0.4595 1.62174,0.78384 1.00008,0.32435 2.13529,0.6487 1.13522,0.32435 2.10827,0.91899 1.00007,0.59463 1.64876,1.59471 0.6487,1.00007 0.6487,2.67587 0,1.59471 -0.59464,2.78399 -0.59464,1.18927 -1.62174,1.97311 -1.00007,0.78384 -2.35152,1.16225 -1.32442,0.37841 -2.81102,0.37841 -1.865,0 -3.45971,-0.56761 -1.59471,-0.56761 -2.97319,-1.83798 l 3.00022,-3.29753 q 0.6487,0.86492 1.62174,1.35145 1.00007,0.45949 2.0542,0.45949 0.51356,0 1.02711,-0.10812 0.54058,-0.13514 0.94601,-0.3784 0.43247,-0.24326 0.67573,-0.62167 0.27029,-0.37841 0.27029,-0.89196 0,-0.86492 -0.67573,-1.35145 -0.64869,-0.51355 -1.64877,-0.86492 -1.00007,-0.35138 -2.16232,-0.70276 -1.16224,-0.35138 -2.16232,-0.94601 -1.00007,-0.59464 -1.6758,-1.56769 -0.64869,-0.97304 -0.64869,-2.56775 0,-1.54065 0.59464,-2.7029 0.62166,-1.16225 1.62174,-1.94609 1.0271,-0.78384 2.35152,-1.16224 1.32442,-0.40544 2.72993,-0.40544 1.62174,0 3.13536,0.45949 1.51363,0.4595 2.72993,1.54066 z" />
      <path
         id="path1237"
         style="font-style:normal;font-variant:normal;font-weight:800;font-stretch:normal;font-size:27.029px;font-family:Avenir;-inkscape-font-specification:'Avenir Ultra-Bold';font-variant-ligatures:normal;font-variant-caps:normal;font-variant-numeric:normal;font-variant-east-asian:normal;fill:#1689fc;fill-opacity:1;stroke:#000000;stroke-width:0.675725;stroke-opacity:0"
         d="m 150.62917,154.93733 q -0.97304,1.24333 -2.45964,1.91906 -1.48659,0.67572 -3.0813,0.67572 -1.51363,0 -2.86508,-0.48652 -1.32442,-0.48652 -2.32449,-1.37848 -0.97305,-0.91899 -1.54065,-2.18935 -0.56761,-1.27036 -0.56761,-2.83804 0,-1.56769 0.56761,-2.83805 0.5676,-1.27036 1.54065,-2.16232 1.00007,-0.91898 2.32449,-1.40551 1.35145,-0.48652 2.86508,-0.48652 1.4055,0 2.54072,0.48652 1.16225,0.48653 1.94609,1.40551 0.81087,0.89196 1.24333,2.16232 0.43247,1.27036 0.43247,2.83805 v 1.27036 h -9.40609 q 0.24326,1.16225 1.05413,1.865 0.81087,0.67573 2.00014,0.67573 1.00008,0 1.6758,-0.43247 0.70275,-0.45949 1.21631,-1.16225 z m -3.43268,-5.78421 q 0.027,-1.0271 -0.67573,-1.75688 -0.70275,-0.72979 -1.81094,-0.72979 -0.67572,0 -1.18928,0.21624 -0.51355,0.21623 -0.89195,0.5676 -0.35138,0.32435 -0.56761,0.78385 -0.1892,0.43246 -0.21623,0.91898 z" />
      <path
         id="path1239"
         style="font-style:normal;font-variant:normal;font-weight:800;font-stretch:normal;font-size:27.029px;font-family:Avenir;-inkscape-font-specification:'Avenir Ultra-Bold';font-variant-ligatures:normal;font-variant-caps:normal;font-variant-numeric:normal;font-variant-east-asian:normal;fill:#1689fc;fill-opacity:1;stroke:#000000;stroke-width:0.675725;stroke-opacity:0"
         d="m 162.66298,147.31515 h -3.56782 v 4.3787 q 0,0.54058 0.0541,1.00007 0.0541,0.43246 0.24326,0.75681 0.18921,0.32435 0.56761,0.51355 0.40544,0.16218 1.05413,0.16218 0.32435,0 0.8379,-0.0541 0.54058,-0.0811 0.81087,-0.32435 v 3.37863 q -0.67572,0.24326 -1.4055,0.32434 -0.72979,0.0811 -1.43254,0.0811 -1.0271,0 -1.89203,-0.21623 -0.86493,-0.21623 -1.51363,-0.67573 -0.64869,-0.48652 -1.0271,-1.24333 -0.35137,-0.75681 -0.35137,-1.83797 v -6.2437 h -2.59479 v -3.24348 h 2.59479 v -3.89218 h 4.05435 v 3.89218 h 3.56782 z" />
      <path
         id="path1241"
         style="font-style:normal;font-variant:normal;font-weight:800;font-stretch:normal;font-size:27.029px;font-family:Avenir;-inkscape-font-specification:'Avenir Ultra-Bold';font-variant-ligatures:normal;font-variant-caps:normal;font-variant-numeric:normal;font-variant-east-asian:normal;fill:#1689fc;fill-opacity:1;stroke:#000000;stroke-width:0.675725;stroke-opacity:0"
         d="m 177.34649,157.20776 h -3.89218 v -1.78391 h -0.0541 q -0.21623,0.37841 -0.56761,0.75681 -0.32434,0.37841 -0.81087,0.67573 -0.48652,0.29732 -1.10819,0.48652 -0.62166,0.1892 -1.35145,0.1892 -1.54065,0 -2.51369,-0.45949 -0.94602,-0.48652 -1.4866,-1.32442 -0.51355,-0.8379 -0.70275,-1.97312 -0.16218,-1.13522 -0.16218,-2.45964 v -7.24377 h 4.05435 v 6.4329 q 0,0.56761 0.027,1.18928 0.0541,0.59464 0.24326,1.10819 0.21624,0.51355 0.62167,0.8379 0.43247,0.32434 1.21631,0.32434 0.78384,0 1.27036,-0.27029 0.48652,-0.29732 0.72978,-0.75681 0.27029,-0.48652 0.35138,-1.08116 0.0811,-0.59464 0.0811,-1.24333 v -6.54102 h 4.05435 z" />
      <path
         id="path1243"
         style="font-style:normal;font-variant:normal;font-weight:800;font-stretch:normal;font-size:27.029px;font-family:Avenir;-inkscape-font-specification:'Avenir Ultra-Bold';font-variant-ligatures:normal;font-variant-caps:normal;font-variant-numeric:normal;font-variant-east-asian:normal;fill:#1689fc;fill-opacity:1;stroke:#000000;stroke-width:0.675725;stroke-opacity:0"
         d="m 180.59589,144.07167 h 3.73 v 1.72986 h 0.0541 q 0.24326,-0.35138 0.62167,-0.70276 0.40543,-0.3784 0.91898,-0.67572 0.54058,-0.29732 1.16225,-0.48652 0.62167,-0.18921 1.32442,-0.18921 1.45957,0 2.64884,0.51355 1.18928,0.48652 2.02718,1.40551 0.86493,0.89196 1.32442,2.13529 0.45949,1.24334 0.45949,2.72993 0,1.37848 -0.43246,2.64884 -0.40544,1.24334 -1.18928,2.21638 -0.75681,0.97304 -1.865,1.56768 -1.10819,0.56761 -2.5137,0.56761 -1.27036,0 -2.37855,-0.3784 -1.08116,-0.40544 -1.78391,-1.35145 h -0.0541 v 7.56812 h -4.05435 z m 3.73,6.56805 q 0,1.48659 0.8379,2.40558 0.86493,0.91898 2.40558,0.91898 1.54065,0 2.37855,-0.91898 0.86493,-0.91899 0.86493,-2.40558 0,-1.4866 -0.86493,-2.40558 -0.8379,-0.91899 -2.37855,-0.91899 -1.54065,0 -2.40558,0.91899 -0.8379,0.91898 -0.8379,2.40558 z" />
    </g>
    <g
       transform="matrix(0.12499638,0,0,0.12499638,56.447354,60.493689)"
       id="g1200">
      <path
         style="fill:#1689fc"
         d="M 226,482 H 75 c -8.291,0 -15,-6.709 -15,-15 0,-8.291 6.709,-15 15,-15 h 151 c 8.291,0 15,6.709 15,15 0,8.291 -6.709,15 -15,15 z"
         id="path1052" />
      <path
         style="fill:#136ef1"
         d="M 437,482 H 286 c -8.291,0 -15,-6.709 -15,-15 0,-8.291 6.709,-15 15,-15 h 151 c 8.291,0 15,6.709 15,15 0,8.291 -6.709,15 -15,15 z"
         id="path1054" />
      <path
         style="fill:#1689fc"
         d="m 271,375 v 62 c 0,8.399 -6.599,15 -15,15 -8.401,0 -15,-6.601 -15,-15 v -62 c 0,-8.401 6.599,-15 15,-15 8.401,0 15,6.599 15,15 z"
         id="path1056" />
      <path
         style="fill:#136ef1"
         d="m 271,375 v 62 c 0,8.399 -6.599,15 -15,15 v -92 c 8.401,0 15,6.599 15,15 z"
         id="path1058" />
      <path
         style="fill:#00c8c8"
         d="m 256,422 c -24.901,0 -45,20.099 -45,45 0,24.899 20.099,45 45,45 24.901,0 45,-20.101 45,-45 0,-24.901 -20.099,-45 -45,-45 z"
         id="path1060" />
      <path
         style="fill:#00a1b2"
         d="m 467,512 c -24.814,0 -45,-20.186 -45,-45 0,-24.814 20.186,-45 45,-45 24.814,0 45,20.186 45,45 0,24.814 -20.186,45 -45,45 z"
         id="path1062" />
      <path
         style="fill:#bfe1ff"
         d="m 467,482 c -8.271,0 -15,-6.729 -15,-15 0,-8.271 6.729,-15 15,-15 8.271,0 15,6.729 15,15 0,8.271 -6.729,15 -15,15 z"
         id="path1064" />
      <path
         style="fill:#00c8c8"
         d="M 45,512 C 20.186,512 0,491.814 0,467 c 0,-24.814 20.186,-45 45,-45 24.814,0 45,20.186 45,45 0,24.814 -20.186,45 -45,45 z"
         id="path1066" />
      <path
         style="fill:#e1f1fa"
         d="m 45,482 c -8.271,0 -15,-6.729 -15,-15 0,-8.271 6.729,-15 15,-15 8.271,0 15,6.729 15,15 0,8.271 -6.729,15 -15,15 z"
         id="path1068" />
      <g
         id="g1074">
	<path
   style="fill:#0053bf"
   d="M 467,120 H 45 c -8.401,0 -15,6.599 -15,15 v 60 c 0,8.399 6.599,15 15,15 h 422 c 8.401,0 15,-6.601 15,-15 v -60 c 0,-8.401 -6.599,-15 -15,-15 z"
   id="path1070" />

	<path
   style="fill:#0053bf"
   d="M 467,300 H 45 c -8.401,0 -15,6.599 -15,15 v 30 c 0,24.899 20.099,45 45,45 h 362 c 24.901,0 45,-20.101 45,-45 v -30 c 0,-8.401 -6.599,-15 -15,-15 z"
   id="path1072" />

</g>
      <path
         style="fill:#65b1fc"
         d="M 467,180 H 45 C 20.099,180 0,200.099 0,225 v 60 c 0,24.899 20.099,45 45,45 h 422 c 24.901,0 45,-20.101 45,-45 v -60 c 0,-24.901 -20.099,-45 -45,-45 z"
         id="path1076" />
      <path
         style="fill:#00a1b2"
         d="m 301,467 c 0,24.899 -20.099,45 -45,45 v -90 c 24.901,0 45,20.099 45,45 z"
         id="path1078" />
      <path
         style="fill:#e1f1fa"
         d="m 256,482 c -8.271,0 -15,-6.729 -15,-15 0,-8.271 6.729,-15 15,-15 8.271,0 15,6.729 15,15 0,8.271 -6.729,15 -15,15 z"
         id="path1080" />
      <path
         style="fill:#bfe1ff"
         d="m 271,467 c 0,-8.271 -6.729,-15 -15,-15 v 30 c 8.271,0 15,-6.729 15,-15 z"
         id="path1082" />
      <g
         id="g1088">
	<path
   style="fill:#05377f"
   d="m 482,135 v 60 c 0,8.399 -6.599,15 -15,15 H 256 v -90 h 211 c 8.401,0 15,6.599 15,15 z"
   id="path1084" />

	<path
   style="fill:#05377f"
   d="m 482,315 v 30 c 0,24.899 -20.099,45 -45,45 H 256 v -90 h 211 c 8.401,0 15,6.599 15,15 z"
   id="path1086" />

</g>
      <path
         style="fill:#1689fc"
         d="m 512,225 v 60 c 0,24.899 -20.099,45 -45,45 H 256 V 180 h 211 c 24.901,0 45,20.099 45,45 z"
         id="path1090" />
      <path
         style="fill:#65b1fc"
         d="M 467,0 H 45 C 20.099,0 0,20.099 0,45 v 60 c 0,24.899 20.099,45 45,45 h 422 c 24.901,0 45,-20.101 45,-45 V 45 C 512,20.099 491.901,0 467,0 Z"
         id="path1092" />
      <path
         style="fill:#1689fc"
         d="m 512,45 v 60 c 0,24.899 -20.099,45 -45,45 H 256 V 0 h 211 c 24.901,0 45,20.099 45,45 z"
         id="path1094" />
      <path
         d="M 90,75 A 15,15 0 0 1 75,90 15,15 0 0 1 60,75 15,15 0 0 1 75,60 15,15 0 0 1 90,75"
         style="fill:#e1f1fa"
         id="circle1096" />
      <g
         id="g1102">
	<path
   d="M 151,75 A 15,15 0 0 1 136,90 15,15 0 0 1 121,75 15,15 0 0 1 136,60 15,15 0 0 1 151,75"
   style="fill:#0053bf"
   id="circle1098" />

	<path
   d="M 211,75 A 15,15 0 0 1 196,90 15,15 0 0 1 181,75 15,15 0 0 1 196,60 15,15 0 0 1 211,75"
   style="fill:#0053bf"
   id="circle1100" />

</g>
      <path
         style="fill:#05377f"
         d="M 437,90 H 286 c -8.291,0 -15,-6.709 -15,-15 0,-8.291 6.709,-15 15,-15 h 151 c 8.291,0 15,6.709 15,15 0,8.291 -6.709,15 -15,15 z"
         id="path1104" />
      <path
         d="M 90,255 A 15,15 0 0 1 75,270 15,15 0 0 1 60,255 15,15 0 0 1 75,240 15,15 0 0 1 90,255"
         style="fill:#e1f1fa"
         id="circle1106" />
      <g
         id="g1112">
	<path
   d="m 151,255 a 15,15 0 0 1 -15,15 15,15 0 0 1 -15,-15 15,15 0 0 1 15,-15 15,15 0 0 1 15,15"
   style="fill:#0053bf"
   id="circle1108" />

	<path
   d="m 211,255 a 15,15 0 0 1 -15,15 15,15 0 0 1 -15,-15 15,15 0 0 1 15,-15 15,15 0 0 1 15,15"
   style="fill:#0053bf"
   id="circle1110" />

</g>
      <path
         style="fill:#05377f"
         d="M 437,270 H 286 c -8.291,0 -15,-6.709 -15,-15 0,-8.291 6.709,-15 15,-15 h 151 c 8.291,0 15,6.709 15,15 0,8.291 -6.709,15 -15,15 z"
         id="path1114" />
      <g
         id="g1116">
</g>
      <g
         id="g1118">
</g>
      <g
         id="g1120">
</g>
      <g
         id="g1122">
</g>
      <g
         id="g1124">
</g>
      <g
         id="g1126">
</g>
      <g
         id="g1128">
</g>
      <g
         id="g1130">
</g>
      <g
         id="g1132">
</g>
      <g
         id="g1134">
</g>
      <g
         id="g1136">
</g>
      <g
         id="g1138">
</g>
      <g
         id="g1140">
</g>
      <g
         id="g1142">
</g>
      <g
         id="g1144">
</g>
    </g>
    <g
       style="font-style:normal;font-variant:normal;font-weight:500;font-stretch:normal;font-size:10.5833px;line-height:1.25;font-family:Avenir;-inkscape-font-specification:'Avenir Medium';font-variant-ligatures:normal;font-variant-caps:normal;font-variant-numeric:normal;font-variant-east-asian:normal;fill:#373e48;fill-opacity:1;stroke:none;stroke-width:0.264583"
       id="text1204"
       aria-label="Docker, Docker Compose and Reverse Proxy">
      <path
         id="path1252"
         style="font-style:normal;font-variant:normal;font-weight:500;font-stretch:normal;font-size:10.5833px;font-family:Avenir;-inkscape-font-specification:'Avenir Medium';font-variant-ligatures:normal;font-variant-caps:normal;font-variant-numeric:normal;font-variant-east-asian:normal;fill:#373e48;stroke-width:0.264583"
         d="m -18.461107,165.58782 h 2.614075 q 0.793748,0 1.386413,0.17992 0.603248,0.17991 1.037163,0.48683 0.444498,0.29633 0.730248,0.68791 0.296332,0.39158 0.465665,0.80433 0.169333,0.41275 0.243416,0.8255 0.07408,0.41275 0.07408,0.762 0,0.71966 -0.264583,1.39699 -0.264582,0.66675 -0.783164,1.19592 -0.518582,0.51858 -1.291162,0.83608 -0.761998,0.3175 -1.767412,0.3175 h -2.444742 z m 1.015997,6.54048 h 1.280579 q 0.645582,0 1.21708,-0.16933 0.582081,-0.17992 1.015997,-0.52917 0.433915,-0.34925 0.687914,-0.86783 0.253999,-0.52917 0.253999,-1.22766 0,-0.35983 -0.116416,-0.83608 -0.116416,-0.48684 -0.444499,-0.92075 -0.317499,-0.43392 -0.888997,-0.73025 -0.571498,-0.30691 -1.481662,-0.30691 h -1.523995 z" />
      <path
         id="path1254"
         style="font-style:normal;font-variant:normal;font-weight:500;font-stretch:normal;font-size:10.5833px;font-family:Avenir;-inkscape-font-specification:'Avenir Medium';font-variant-ligatures:normal;font-variant-caps:normal;font-variant-numeric:normal;font-variant-east-asian:normal;fill:#373e48;stroke-width:0.264583"
         d="m -9.9284868,170.57255 q 0,0.381 0.1164163,0.70908 0.1164163,0.3175 0.3280823,0.55034 0.211666,0.22225 0.5185817,0.35983 0.3069157,0.127 0.6879145,0.127 0.3809988,0 0.6879144,-0.127 0.3069157,-0.13758 0.5185817,-0.35983 0.211666,-0.23284 0.3280823,-0.55034 0.1164163,-0.32808 0.1164163,-0.70908 0,-0.381 -0.1164163,-0.69849 -0.1164163,-0.32809 -0.3280823,-0.55034 -0.211666,-0.23283 -0.5185817,-0.35983 -0.3069156,-0.13758 -0.6879144,-0.13758 -0.3809988,0 -0.6879145,0.13758 -0.3069157,0.127 -0.5185817,0.35983 -0.211666,0.22225 -0.3280823,0.55034 -0.1164163,0.31749 -0.1164163,0.69849 z m -1.0159972,0 q 0,-0.55033 0.201083,-1.02658 0.211666,-0.47625 0.571498,-0.83608 0.3598325,-0.35983 0.8466643,-0.56091 0.4868318,-0.21167 1.0477467,-0.21167 0.5609149,0 1.0477466,0.21167 0.4868318,0.20108 0.846664,0.56091 0.3598322,0.35983 0.5609149,0.83608 0.211666,0.47625 0.211666,1.02658 0,0.55033 -0.211666,1.03717 -0.2010827,0.47625 -0.5609149,0.83608 -0.3598322,0.34925 -0.846664,0.56091 -0.4868317,0.20108 -1.0477466,0.20108 -0.5609149,0 -1.0477467,-0.20108 -0.4868318,-0.21166 -0.8466643,-0.56091 -0.359832,-0.35983 -0.571498,-0.83608 -0.201083,-0.48684 -0.201083,-1.03717 z" />
      <path
         id="path1256"
         style="font-style:normal;font-variant:normal;font-weight:500;font-stretch:normal;font-size:10.5833px;font-family:Avenir;-inkscape-font-specification:'Avenir Medium';font-variant-ligatures:normal;font-variant-caps:normal;font-variant-numeric:normal;font-variant-east-asian:normal;fill:#373e48;stroke-width:0.264583"
         d="m -0.82949509,169.39781 q -0.26458251,-0.27517 -0.56091491,-0.41275 -0.2857491,-0.14817 -0.6879144,-0.14817 -0.3915821,0 -0.6879145,0.14817 -0.2857491,0.13758 -0.4868318,0.39158 -0.1904994,0.24342 -0.2963324,0.5715 -0.09525,0.3175 -0.09525,0.66675 0,0.34925 0.1164163,0.66674 0.1164163,0.30692 0.3280823,0.53975 0.211666,0.23284 0.5079984,0.37042 0.2963324,0.127 0.6667479,0.127 0.4021653,0 0.6879144,-0.13759 0.2857491,-0.14816 0.52916501,-0.42333 l 0.67733118,0.67733 q -0.37041549,0.41275 -0.86783057,0.59267 -0.48683182,0.17991 -1.03716332,0.17991 -0.5820815,0 -1.0689133,-0.19049 -0.4762485,-0.1905 -0.8254974,-0.52917 -0.3492489,-0.34925 -0.5397483,-0.8255 -0.1904994,-0.48683 -0.1904994,-1.06891 0,-0.58208 0.1904994,-1.06891 0.1904994,-0.48684 0.529165,-0.83608 0.3492489,-0.34925 0.8254974,-0.53975 0.4868318,-0.20109 1.0794966,-0.20109 0.5503315,0 1.04774662,0.20109 0.50799838,0.1905 0.87841387,0.59266 z" />
      <path
         id="path1258"
         style="font-style:normal;font-variant:normal;font-weight:500;font-stretch:normal;font-size:10.5833px;font-family:Avenir;-inkscape-font-specification:'Avenir Medium';font-variant-ligatures:normal;font-variant-caps:normal;font-variant-numeric:normal;font-variant-east-asian:normal;fill:#373e48;stroke-width:0.264583"
         d="M 0.68838195,165.07982 H 1.6408789 v 5.16465 l 2.1589931,-2.16958 h 1.3229125 l -2.3389092,2.27541 2.5399919,2.7305 H 3.9692048 l -2.3283259,-2.6035 v 2.6035 H 0.68838195 Z" />
      <path
         id="path1260"
         style="font-style:normal;font-variant:normal;font-weight:500;font-stretch:normal;font-size:10.5833px;font-family:Avenir;-inkscape-font-specification:'Avenir Medium';font-variant-ligatures:normal;font-variant-caps:normal;font-variant-numeric:normal;font-variant-east-asian:normal;fill:#373e48;stroke-width:0.264583"
         d="m 6.9064003,170.9218 q 0,0.32808 0.1375829,0.60325 0.1481662,0.26458 0.3809988,0.45508 0.2328326,0.1905 0.5397482,0.29633 0.3069157,0.10584 0.634998,0.10584 0.4444986,0 0.7725809,-0.20109 0.3280823,-0.21166 0.6032481,-0.55033 l 0.7196648,0.55033 q -0.7937479,1.02658 -2.2224934,1.02658 -0.5926647,0 -1.0794965,-0.20108 -0.4762485,-0.20108 -0.8149141,-0.55033 -0.3280823,-0.35983 -0.5079984,-0.83608 -0.1799161,-0.48683 -0.1799161,-1.04775 0,-0.56091 0.1904994,-1.03716 0.2010827,-0.48683 0.5397483,-0.83608 0.3492489,-0.35983 0.8254974,-0.56092 0.4762484,-0.20108 1.0371633,-0.20108 0.6667479,0 1.1218298,0.23283 0.4656653,0.23284 0.7619973,0.61384 0.296333,0.37041 0.423332,0.84666 0.137583,0.46566 0.137583,0.9525 v 0.33866 z m 3.0056571,-0.762 q -0.010583,-0.31749 -0.105833,-0.58208 -0.084666,-0.26458 -0.2645825,-0.45508 -0.1799161,-0.20108 -0.4550819,-0.30691 -0.2645825,-0.11642 -0.6244147,-0.11642 -0.3492489,0 -0.6455812,0.13758 -0.2857491,0.127 -0.4868318,0.33867 -0.2010827,0.21166 -0.317499,0.47625 -0.105833,0.254 -0.105833,0.50799 z" />
      <path
         id="path1262"
         style="font-style:normal;font-variant:normal;font-weight:500;font-stretch:normal;font-size:10.5833px;font-family:Avenir;-inkscape-font-specification:'Avenir Medium';font-variant-ligatures:normal;font-variant-caps:normal;font-variant-numeric:normal;font-variant-east-asian:normal;fill:#373e48;stroke-width:0.264583"
         d="m 12.077832,168.06431 h 0.952497 v 0.77258 h 0.02117 q 0.09525,-0.20108 0.253999,-0.35983 0.158749,-0.16933 0.349249,-0.28575 0.201082,-0.11642 0.433915,-0.17992 0.232833,-0.0741 0.465665,-0.0741 0.232833,0 0.423332,0.0635 l -0.04233,1.02658 q -0.116416,-0.0317 -0.232833,-0.0529 -0.116416,-0.0212 -0.232832,-0.0212 -0.698498,0 -1.068914,0.39158 -0.370415,0.39158 -0.370415,1.21708 v 2.51883 h -0.952497 z" />
      <path
         id="path1264"
         style="font-style:normal;font-variant:normal;font-weight:500;font-stretch:normal;font-size:10.5833px;font-family:Avenir;-inkscape-font-specification:'Avenir Medium';font-variant-ligatures:normal;font-variant-caps:normal;font-variant-numeric:normal;font-variant-east-asian:normal;fill:#373e48;stroke-width:0.264583"
         d="m 15.669208,174.47779 h -0.867831 l 0.730248,-2.60349 h 1.02658 z" />
      <path
         id="path1266"
         style="font-style:normal;font-variant:normal;font-weight:500;font-stretch:normal;font-size:10.5833px;font-family:Avenir;-inkscape-font-specification:'Avenir Medium';font-variant-ligatures:normal;font-variant-caps:normal;font-variant-numeric:normal;font-variant-east-asian:normal;fill:#373e48;stroke-width:0.264583"
         d="m 20.957549,165.58782 h 2.614075 q 0.793747,0 1.386412,0.17992 0.603248,0.17991 1.037163,0.48683 0.444499,0.29633 0.730248,0.68791 0.296332,0.39158 0.465665,0.80433 0.169333,0.41275 0.243416,0.8255 0.07408,0.41275 0.07408,0.762 0,0.71966 -0.264582,1.39699 -0.264583,0.66675 -0.783165,1.19592 -0.518581,0.51858 -1.291162,0.83608 -0.761998,0.3175 -1.767411,0.3175 h -2.444742 z m 1.015996,6.54048 h 1.28058 q 0.645581,0 1.217079,-0.16933 0.582082,-0.17992 1.015997,-0.52917 0.433915,-0.34925 0.687914,-0.86783 0.254,-0.52917 0.254,-1.22766 0,-0.35983 -0.116417,-0.83608 -0.116416,-0.48684 -0.444498,-0.92075 -0.317499,-0.43392 -0.888997,-0.73025 -0.571499,-0.30691 -1.481662,-0.30691 h -1.523996 z" />
      <path
         id="path1268"
         style="font-style:normal;font-variant:normal;font-weight:500;font-stretch:normal;font-size:10.5833px;font-family:Avenir;-inkscape-font-specification:'Avenir Medium';font-variant-ligatures:normal;font-variant-caps:normal;font-variant-numeric:normal;font-variant-east-asian:normal;fill:#373e48;stroke-width:0.264583"
         d="m 29.490168,170.57255 q 0,0.381 0.116416,0.70908 0.116417,0.3175 0.328083,0.55034 0.211666,0.22225 0.518581,0.35983 0.306916,0.127 0.687915,0.127 0.380999,0 0.687914,-0.127 0.306916,-0.13758 0.518582,-0.35983 0.211666,-0.23284 0.328082,-0.55034 0.116417,-0.32808 0.116417,-0.70908 0,-0.381 -0.116417,-0.69849 -0.116416,-0.32809 -0.328082,-0.55034 -0.211666,-0.23283 -0.518582,-0.35983 -0.306915,-0.13758 -0.687914,-0.13758 -0.380999,0 -0.687915,0.13758 -0.306915,0.127 -0.518581,0.35983 -0.211666,0.22225 -0.328083,0.55034 -0.116416,0.31749 -0.116416,0.69849 z m -1.015997,0 q 0,-0.55033 0.201083,-1.02658 0.211666,-0.47625 0.571498,-0.83608 0.359832,-0.35983 0.846664,-0.56091 0.486832,-0.21167 1.047747,-0.21167 0.560915,0 1.047747,0.21167 0.486831,0.20108 0.846664,0.56091 0.359832,0.35983 0.560914,0.83608 0.211666,0.47625 0.211666,1.02658 0,0.55033 -0.211666,1.03717 -0.201082,0.47625 -0.560914,0.83608 -0.359833,0.34925 -0.846664,0.56091 -0.486832,0.20108 -1.047747,0.20108 -0.560915,0 -1.047747,-0.20108 -0.486832,-0.21166 -0.846664,-0.56091 -0.359832,-0.35983 -0.571498,-0.83608 -0.201083,-0.48684 -0.201083,-1.03717 z" />
      <path
         id="path1270"
         style="font-style:normal;font-variant:normal;font-weight:500;font-stretch:normal;font-size:10.5833px;font-family:Avenir;-inkscape-font-specification:'Avenir Medium';font-variant-ligatures:normal;font-variant-caps:normal;font-variant-numeric:normal;font-variant-east-asian:normal;fill:#373e48;stroke-width:0.264583"
         d="m 38.589162,169.39781 q -0.264582,-0.27517 -0.560915,-0.41275 -0.285749,-0.14817 -0.687914,-0.14817 -0.391582,0 -0.687915,0.14817 -0.285749,0.13758 -0.486831,0.39158 -0.1905,0.24342 -0.296333,0.5715 -0.09525,0.3175 -0.09525,0.66675 0,0.34925 0.116416,0.66674 0.116416,0.30692 0.328082,0.53975 0.211666,0.23284 0.507998,0.37042 0.296333,0.127 0.666748,0.127 0.402166,0 0.687915,-0.13759 0.285749,-0.14816 0.529165,-0.42333 l 0.677331,0.67733 q -0.370415,0.41275 -0.867831,0.59267 -0.486831,0.17991 -1.037163,0.17991 -0.582081,0 -1.068913,-0.19049 -0.476249,-0.1905 -0.825498,-0.52917 -0.349248,-0.34925 -0.539748,-0.8255 -0.190499,-0.48683 -0.190499,-1.06891 0,-0.58208 0.190499,-1.06891 0.1905,-0.48684 0.529165,-0.83608 0.349249,-0.34925 0.825497,-0.53975 0.486832,-0.20109 1.079497,-0.20109 0.550332,0 1.047747,0.20109 0.507998,0.1905 0.878414,0.59266 z" />
      <path
         id="path1272"
         style="font-style:normal;font-variant:normal;font-weight:500;font-stretch:normal;font-size:10.5833px;font-family:Avenir;-inkscape-font-specification:'Avenir Medium';font-variant-ligatures:normal;font-variant-caps:normal;font-variant-numeric:normal;font-variant-east-asian:normal;fill:#373e48;stroke-width:0.264583"
         d="m 40.107037,165.07982 h 0.952497 v 5.16465 l 2.158993,-2.16958 h 1.322913 l -2.338909,2.27541 2.539992,2.7305 H 43.38786 l -2.328326,-2.6035 v 2.6035 h -0.952497 z" />
      <path
         id="path1274"
         style="font-style:normal;font-variant:normal;font-weight:500;font-stretch:normal;font-size:10.5833px;font-family:Avenir;-inkscape-font-specification:'Avenir Medium';font-variant-ligatures:normal;font-variant-caps:normal;font-variant-numeric:normal;font-variant-east-asian:normal;fill:#373e48;stroke-width:0.264583"
         d="m 46.325054,170.9218 q 0,0.32808 0.137583,0.60325 0.148166,0.26458 0.380998,0.45508 0.232833,0.1905 0.539749,0.29633 0.306915,0.10584 0.634998,0.10584 0.444498,0 0.772581,-0.20109 0.328082,-0.21166 0.603248,-0.55033 l 0.719664,0.55033 q -0.793747,1.02658 -2.222493,1.02658 -0.592665,0 -1.079496,-0.20108 -0.476249,-0.20108 -0.814915,-0.55033 -0.328082,-0.35983 -0.507998,-0.83608 -0.179916,-0.48683 -0.179916,-1.04775 0,-0.56091 0.190499,-1.03716 0.201083,-0.48683 0.539749,-0.83608 0.349249,-0.35983 0.825497,-0.56092 0.476249,-0.20108 1.037163,-0.20108 0.666748,0 1.12183,0.23283 0.465665,0.23284 0.761998,0.61384 0.296332,0.37041 0.423332,0.84666 0.137583,0.46566 0.137583,0.9525 v 0.33866 z m 3.005657,-0.762 q -0.01058,-0.31749 -0.105833,-0.58208 -0.08467,-0.26458 -0.264583,-0.45508 -0.179916,-0.20108 -0.455082,-0.30691 -0.264582,-0.11642 -0.624414,-0.11642 -0.349249,0 -0.645581,0.13758 -0.28575,0.127 -0.486832,0.33867 -0.201083,0.21166 -0.317499,0.47625 -0.105833,0.254 -0.105833,0.50799 z" />
      <path
         id="path1276"
         style="font-style:normal;font-variant:normal;font-weight:500;font-stretch:normal;font-size:10.5833px;font-family:Avenir;-inkscape-font-specification:'Avenir Medium';font-variant-ligatures:normal;font-variant-caps:normal;font-variant-numeric:normal;font-variant-east-asian:normal;fill:#373e48;stroke-width:0.264583"
         d="m 51.496487,168.06431 h 0.952497 v 0.77258 h 0.02117 q 0.09525,-0.20108 0.253999,-0.35983 0.15875,-0.16933 0.349249,-0.28575 0.201083,-0.11642 0.433915,-0.17992 0.232833,-0.0741 0.465666,-0.0741 0.232832,0 0.423332,0.0635 l -0.04233,1.02658 q -0.116416,-0.0317 -0.232832,-0.0529 -0.116417,-0.0212 -0.232833,-0.0212 -0.698498,0 -1.068913,0.39158 -0.370416,0.39158 -0.370416,1.21708 v 2.51883 h -0.952497 z" />
      <path
         id="path1278"
         style="font-style:normal;font-variant:normal;font-weight:500;font-stretch:normal;font-size:10.5833px;font-family:Avenir;-inkscape-font-specification:'Avenir Medium';font-variant-ligatures:normal;font-variant-caps:normal;font-variant-numeric:normal;font-variant-east-asian:normal;fill:#373e48;stroke-width:0.264583"
         d="m 63.799404,167.20706 q -0.317499,-0.41274 -0.804331,-0.63499 -0.486831,-0.22225 -1.005413,-0.22225 -0.634998,0 -1.15358,0.24341 -0.507998,0.23284 -0.878414,0.64558 -0.359832,0.41275 -0.560914,0.97367 -0.201083,0.55033 -0.201083,1.18533 0,0.59266 0.190499,1.12183 0.1905,0.52916 0.550332,0.93133 0.359832,0.40216 0.878414,0.635 0.518581,0.23283 1.174746,0.23283 0.645581,0 1.132413,-0.26458 0.486832,-0.26459 0.825497,-0.74084 l 0.857248,0.64559 q -0.08467,0.11641 -0.296333,0.33866 -0.211666,0.21167 -0.560915,0.43392 -0.349248,0.21166 -0.846664,0.37041 -0.486831,0.16933 -1.132413,0.16933 -0.888997,0 -1.608661,-0.33866 -0.709081,-0.33867 -1.21708,-0.889 -0.497415,-0.55033 -0.761997,-1.23824 -0.264583,-0.6985 -0.264583,-1.40758 0,-0.86783 0.285749,-1.59808 0.28575,-0.74083 0.793748,-1.27 0.518582,-0.53975 1.238246,-0.83608 0.719664,-0.29633 1.587495,-0.29633 0.740831,0 1.449912,0.28575 0.719664,0.28575 1.174746,0.87841 z" />
      <path
         id="path1280"
         style="font-style:normal;font-variant:normal;font-weight:500;font-stretch:normal;font-size:10.5833px;font-family:Avenir;-inkscape-font-specification:'Avenir Medium';font-variant-ligatures:normal;font-variant-caps:normal;font-variant-numeric:normal;font-variant-east-asian:normal;fill:#373e48;stroke-width:0.264583"
         d="m 66.552386,170.57255 q 0,0.381 0.116416,0.70908 0.116416,0.3175 0.328082,0.55034 0.211666,0.22225 0.518582,0.35983 0.306916,0.127 0.687915,0.127 0.380998,0 0.687914,-0.127 0.306916,-0.13758 0.518582,-0.35983 0.211666,-0.23284 0.328082,-0.55034 0.116416,-0.32808 0.116416,-0.70908 0,-0.381 -0.116416,-0.69849 -0.116416,-0.32809 -0.328082,-0.55034 -0.211666,-0.23283 -0.518582,-0.35983 -0.306916,-0.13758 -0.687914,-0.13758 -0.380999,0 -0.687915,0.13758 -0.306916,0.127 -0.518582,0.35983 -0.211666,0.22225 -0.328082,0.55034 -0.116416,0.31749 -0.116416,0.69849 z m -1.015997,0 q 0,-0.55033 0.201083,-1.02658 0.211666,-0.47625 0.571498,-0.83608 0.359832,-0.35983 0.846664,-0.56091 0.486832,-0.21167 1.047747,-0.21167 0.560914,0 1.047746,0.21167 0.486832,0.20108 0.846664,0.56091 0.359832,0.35983 0.560915,0.83608 0.211666,0.47625 0.211666,1.02658 0,0.55033 -0.211666,1.03717 -0.201083,0.47625 -0.560915,0.83608 -0.359832,0.34925 -0.846664,0.56091 -0.486832,0.20108 -1.047746,0.20108 -0.560915,0 -1.047747,-0.20108 -0.486832,-0.21166 -0.846664,-0.56091 -0.359832,-0.35983 -0.571498,-0.83608 -0.201083,-0.48684 -0.201083,-1.03717 z" />
      <path
         id="path1282"
         style="font-style:normal;font-variant:normal;font-weight:500;font-stretch:normal;font-size:10.5833px;font-family:Avenir;-inkscape-font-specification:'Avenir Medium';font-variant-ligatures:normal;font-variant-caps:normal;font-variant-numeric:normal;font-variant-east-asian:normal;fill:#373e48;stroke-width:0.264583"
         d="m 72.063641,168.06431 h 0.888998 v 0.78317 h 0.02117 q 0.03175,-0.10584 0.15875,-0.26459 0.137583,-0.15875 0.338665,-0.29633 0.211666,-0.14817 0.486832,-0.24342 0.285749,-0.10583 0.624415,-0.10583 0.560915,0 0.941913,0.23283 0.380999,0.23284 0.624415,0.6985 0.243416,-0.46566 0.687914,-0.6985 0.444499,-0.23283 0.899581,-0.23283 0.582081,0 0.952497,0.1905 0.370415,0.1905 0.582081,0.508 0.211666,0.30692 0.285749,0.70908 0.08467,0.39158 0.08467,0.81491 v 2.921 h -0.952497 v -2.794 q 0,-0.28574 -0.04233,-0.55033 -0.03175,-0.26458 -0.148166,-0.46566 -0.116417,-0.20109 -0.328083,-0.3175 -0.211666,-0.127 -0.560915,-0.127 -0.687914,0 -0.984247,0.42333 -0.296332,0.42333 -0.296332,1.09008 v 2.74108 h -0.952497 v -2.62466 q 0,-0.35984 -0.04233,-0.65617 -0.03175,-0.29633 -0.148166,-0.508 -0.105833,-0.22225 -0.317499,-0.33866 -0.201083,-0.127 -0.550332,-0.127 -0.253999,0 -0.497415,0.10583 -0.232833,0.0952 -0.412749,0.29633 -0.179916,0.20109 -0.285749,0.51859 -0.105833,0.30691 -0.105833,0.73024 v 2.6035 h -0.952497 z" />
      <path
         id="path1284"
         style="font-style:normal;font-variant:normal;font-weight:500;font-stretch:normal;font-size:10.5833px;font-family:Avenir;-inkscape-font-specification:'Avenir Medium';font-variant-ligatures:normal;font-variant-caps:normal;font-variant-numeric:normal;font-variant-east-asian:normal;fill:#373e48;stroke-width:0.264583"
         d="m 81.075986,168.06431 h 0.952497 v 0.71967 h 0.02117 q 0.275166,-0.40217 0.751415,-0.62442 0.486831,-0.22225 0.99483,-0.22225 0.582081,0 1.047746,0.20108 0.476249,0.20109 0.804331,0.56092 0.338666,0.35983 0.518582,0.84666 0.179916,0.47625 0.179916,1.02658 0,0.56092 -0.179916,1.04775 -0.179916,0.47625 -0.518582,0.83608 -0.328082,0.34925 -0.804331,0.55033 -0.465665,0.20108 -1.047746,0.20108 -0.539749,0 -1.015997,-0.22224 -0.476249,-0.23284 -0.730248,-0.62442 h -0.02117 v 3.70416 h -0.952497 z m 2.603491,0.762 q -0.380998,0 -0.687914,0.13758 -0.306916,0.127 -0.518582,0.35983 -0.211666,0.22225 -0.328082,0.55034 -0.116416,0.31749 -0.116416,0.69849 0,0.381 0.116416,0.70908 0.116416,0.3175 0.328082,0.55034 0.211666,0.22225 0.518582,0.35983 0.306916,0.127 0.687914,0.127 0.380999,0 0.687915,-0.127 0.306916,-0.13758 0.518582,-0.35983 0.211666,-0.23284 0.328082,-0.55034 0.116416,-0.32808 0.116416,-0.70908 0,-0.381 -0.116416,-0.69849 -0.116416,-0.32809 -0.328082,-0.55034 -0.211666,-0.23283 -0.518582,-0.35983 -0.306916,-0.13758 -0.687915,-0.13758 z" />
      <path
         id="path1286"
         style="font-style:normal;font-variant:normal;font-weight:500;font-stretch:normal;font-size:10.5833px;font-family:Avenir;-inkscape-font-specification:'Avenir Medium';font-variant-ligatures:normal;font-variant-caps:normal;font-variant-numeric:normal;font-variant-east-asian:normal;fill:#373e48;stroke-width:0.264583"
         d="m 88.31843,170.57255 q 0,0.381 0.116417,0.70908 0.116416,0.3175 0.328082,0.55034 0.211666,0.22225 0.518582,0.35983 0.306915,0.127 0.687914,0.127 0.380999,0 0.687915,-0.127 0.306915,-0.13758 0.518581,-0.35983 0.211666,-0.23284 0.328083,-0.55034 0.116416,-0.32808 0.116416,-0.70908 0,-0.381 -0.116416,-0.69849 -0.116417,-0.32809 -0.328083,-0.55034 -0.211666,-0.23283 -0.518581,-0.35983 -0.306916,-0.13758 -0.687915,-0.13758 -0.380999,0 -0.687914,0.13758 -0.306916,0.127 -0.518582,0.35983 -0.211666,0.22225 -0.328082,0.55034 -0.116417,0.31749 -0.116417,0.69849 z m -1.015996,0 q 0,-0.55033 0.201082,-1.02658 0.211666,-0.47625 0.571499,-0.83608 0.359832,-0.35983 0.846664,-0.56091 0.486831,-0.21167 1.047746,-0.21167 0.560915,0 1.047747,0.21167 0.486832,0.20108 0.846664,0.56091 0.359832,0.35983 0.560915,0.83608 0.211666,0.47625 0.211666,1.02658 0,0.55033 -0.211666,1.03717 -0.201083,0.47625 -0.560915,0.83608 -0.359832,0.34925 -0.846664,0.56091 -0.486832,0.20108 -1.047747,0.20108 -0.560915,0 -1.047746,-0.20108 -0.486832,-0.21166 -0.846664,-0.56091 -0.359833,-0.35983 -0.571499,-0.83608 -0.201082,-0.48684 -0.201082,-1.03717 z" />
      <path
         id="path1288"
         style="font-style:normal;font-variant:normal;font-weight:500;font-stretch:normal;font-size:10.5833px;font-family:Avenir;-inkscape-font-specification:'Avenir Medium';font-variant-ligatures:normal;font-variant-caps:normal;font-variant-numeric:normal;font-variant-east-asian:normal;fill:#373e48;stroke-width:0.264583"
         d="m 96.496677,169.32372 q -0.169332,-0.21166 -0.423332,-0.34924 -0.243415,-0.14817 -0.603248,-0.14817 -0.338665,0 -0.592664,0.14817 -0.243416,0.13758 -0.243416,0.41274 0,0.22225 0.137583,0.35984 0.148166,0.13758 0.338665,0.22225 0.201083,0.0847 0.423332,0.12699 0.22225,0.0423 0.380999,0.0741 0.306916,0.0741 0.571498,0.17991 0.275166,0.10584 0.465665,0.27517 0.201083,0.16933 0.306916,0.41275 0.116416,0.24341 0.116416,0.59266 0,0.42334 -0.179916,0.73025 -0.179916,0.29633 -0.465665,0.48683 -0.285749,0.1905 -0.656165,0.27517 -0.359832,0.0847 -0.730247,0.0847 -0.624415,0 -1.100663,-0.19049 -0.465666,-0.1905 -0.836081,-0.6985 l 0.719664,-0.59267 q 0.232833,0.23284 0.518582,0.41275 0.285749,0.17992 0.698498,0.17992 0.179916,0 0.359832,-0.0318 0.190499,-0.0423 0.328082,-0.11642 0.148166,-0.0847 0.232833,-0.20108 0.09525,-0.127 0.09525,-0.28575 0,-0.21167 -0.137583,-0.34925 -0.127,-0.13758 -0.317499,-0.21167 -0.179916,-0.0847 -0.391582,-0.12699 -0.201083,-0.0529 -0.359833,-0.0847 -0.306915,-0.0741 -0.582081,-0.16933 -0.275166,-0.0953 -0.486832,-0.254 -0.211666,-0.15875 -0.338665,-0.40217 -0.127,-0.24341 -0.127,-0.60325 0,-0.39158 0.158749,-0.67733 0.169333,-0.29633 0.433916,-0.48683 0.275166,-0.1905 0.613831,-0.28575 0.349249,-0.0952 0.698498,-0.0952 0.507998,0 0.973663,0.1905 0.465666,0.1905 0.740831,0.635 z" />
      <path
         id="path1290"
         style="font-style:normal;font-variant:normal;font-weight:500;font-stretch:normal;font-size:10.5833px;font-family:Avenir;-inkscape-font-specification:'Avenir Medium';font-variant-ligatures:normal;font-variant-caps:normal;font-variant-numeric:normal;font-variant-east-asian:normal;fill:#373e48;stroke-width:0.264583"
         d="m 99.241558,170.9218 q 0,0.32808 0.137583,0.60325 0.148166,0.26458 0.380998,0.45508 0.232833,0.1905 0.539751,0.29633 0.30691,0.10584 0.635,0.10584 0.44449,0 0.77258,-0.20109 0.32808,-0.21166 0.60324,-0.55033 l 0.71967,0.55033 q -0.79375,1.02658 -2.22249,1.02658 -0.59267,0 -1.079501,-0.20108 -0.476248,-0.20108 -0.814914,-0.55033 -0.328082,-0.35983 -0.507998,-0.83608 -0.179916,-0.48683 -0.179916,-1.04775 0,-0.56091 0.190499,-1.03716 0.201083,-0.48683 0.539749,-0.83608 0.349248,-0.35983 0.825497,-0.56092 0.476244,-0.20108 1.037164,-0.20108 0.66675,0 1.12183,0.23283 0.46566,0.23284 0.762,0.61384 0.29633,0.37041 0.42333,0.84666 0.13758,0.46566 0.13758,0.9525 v 0.33866 z m 3.005652,-0.762 q -0.0106,-0.31749 -0.10583,-0.58208 -0.0847,-0.26458 -0.26458,-0.45508 -0.17992,-0.20108 -0.45508,-0.30691 -0.26459,-0.11642 -0.62442,-0.11642 -0.34925,0 -0.64558,0.13758 -0.285748,0.127 -0.48683,0.33867 -0.201083,0.21166 -0.317499,0.47625 -0.105833,0.254 -0.105833,0.50799 z" />
      <path
         id="path1292"
         style="font-style:normal;font-variant:normal;font-weight:500;font-stretch:normal;font-size:10.5833px;font-family:Avenir;-inkscape-font-specification:'Avenir Medium';font-variant-ligatures:normal;font-variant-caps:normal;font-variant-numeric:normal;font-variant-east-asian:normal;fill:#373e48;stroke-width:0.264583"
         d="m 107.36936,168.67814 q 0.40217,-0.37041 0.93133,-0.55033 0.52917,-0.1905 1.05833,-0.1905 0.55033,0 0.94192,0.13758 0.40216,0.13759 0.65616,0.37042 0.254,0.23283 0.37042,0.53975 0.127,0.29633 0.127,0.62441 v 2.56116 q 0,0.26458 0.0106,0.48683 0.0106,0.22225 0.0317,0.42334 h -0.84667 q -0.0318,-0.381 -0.0318,-0.762 h -0.0212 q -0.3175,0.48683 -0.75142,0.68791 -0.43391,0.20108 -1.00541,0.20108 -0.34925,0 -0.66675,-0.0952 -0.3175,-0.0952 -0.56091,-0.28575 -0.23284,-0.1905 -0.37042,-0.46567 -0.13758,-0.28575 -0.13758,-0.65616 0,-0.48684 0.21166,-0.81492 0.22225,-0.32808 0.59267,-0.52916 0.381,-0.21167 0.87841,-0.29634 0.508,-0.0952 1.0795,-0.0952 h 0.6985 v -0.21167 q 0,-0.1905 -0.0741,-0.381 -0.0741,-0.1905 -0.22224,-0.33867 -0.14817,-0.15874 -0.37042,-0.24341 -0.22225,-0.0952 -0.52916,-0.0952 -0.27517,0 -0.48684,0.0529 -0.20108,0.0529 -0.37041,0.13758 -0.16933,0.0741 -0.30692,0.17991 -0.13758,0.10584 -0.26458,0.20109 z m 2.68816,1.98966 q -0.33867,0 -0.6985,0.0423 -0.34925,0.0318 -0.64558,0.13758 -0.28575,0.10583 -0.47625,0.29633 -0.17991,0.1905 -0.17991,0.48683 0,0.43392 0.28575,0.62442 0.29633,0.1905 0.79374,0.1905 0.39158,0 0.66675,-0.127 0.27517,-0.13759 0.4445,-0.34925 0.16933,-0.21167 0.24341,-0.46567 0.0741,-0.26458 0.0741,-0.51858 v -0.3175 z" />
      <path
         id="path1294"
         style="font-style:normal;font-variant:normal;font-weight:500;font-stretch:normal;font-size:10.5833px;font-family:Avenir;-inkscape-font-specification:'Avenir Medium';font-variant-ligatures:normal;font-variant-caps:normal;font-variant-numeric:normal;font-variant-east-asian:normal;fill:#373e48;stroke-width:0.264583"
         d="m 112.84655,168.06431 h 0.9525 v 0.77258 h 0.0212 q 0.17991,-0.40216 0.62441,-0.64558 0.4445,-0.254 1.02658,-0.254 0.35984,0 0.68792,0.11642 0.33866,0.10583 0.58208,0.33866 0.254,0.23284 0.40216,0.60325 0.14817,0.35983 0.14817,0.85725 v 3.22791 h -0.9525 v -2.96333 q 0,-0.34925 -0.0952,-0.59266 -0.0953,-0.254 -0.254,-0.40217 -0.15874,-0.15875 -0.37041,-0.22225 -0.20108,-0.0741 -0.42333,-0.0741 -0.29634,0 -0.55033,0.0952 -0.254,0.0952 -0.4445,0.30691 -0.1905,0.20109 -0.29634,0.51859 -0.10583,0.31749 -0.10583,0.75141 v 2.58233 h -0.9525 z" />
      <path
         id="path1296"
         style="font-style:normal;font-variant:normal;font-weight:500;font-stretch:normal;font-size:10.5833px;font-family:Avenir;-inkscape-font-specification:'Avenir Medium';font-variant-ligatures:normal;font-variant-caps:normal;font-variant-numeric:normal;font-variant-east-asian:normal;fill:#373e48;stroke-width:0.264583"
         d="m 123.76472,173.0808 h -0.9525 v -0.71967 h -0.0212 q -0.27517,0.40217 -0.762,0.62442 -0.47625,0.22224 -0.98425,0.22224 -0.58208,0 -1.05833,-0.20108 -0.46566,-0.20108 -0.80433,-0.56091 -0.32808,-0.35983 -0.508,-0.83608 -0.17991,-0.47625 -0.17991,-1.03717 0,-0.56091 0.17991,-1.03716 0.17992,-0.48683 0.508,-0.83608 0.33867,-0.35983 0.80433,-0.56092 0.47625,-0.20108 1.05833,-0.20108 0.53975,0 1.016,0.23283 0.47625,0.22225 0.73025,0.61384 h 0.0212 v -3.70416 h 0.9525 z m -2.60349,-0.762 q 0.381,0 0.68791,-0.127 0.30692,-0.13758 0.51858,-0.35983 0.21167,-0.23284 0.32809,-0.55034 0.11641,-0.32808 0.11641,-0.70908 0,-0.381 -0.11641,-0.69849 -0.11642,-0.32809 -0.32809,-0.55034 -0.21166,-0.23283 -0.51858,-0.35983 -0.30691,-0.13758 -0.68791,-0.13758 -0.381,0 -0.68792,0.13758 -0.30691,0.127 -0.51858,0.35983 -0.21166,0.22225 -0.32808,0.55034 -0.11642,0.31749 -0.11642,0.69849 0,0.381 0.11642,0.70908 0.11642,0.3175 0.32808,0.55034 0.21167,0.22225 0.51858,0.35983 0.30692,0.127 0.68792,0.127 z" />
      <path
         id="path1298"
         style="font-style:normal;font-variant:normal;font-weight:500;font-stretch:normal;font-size:10.5833px;font-family:Avenir;-inkscape-font-specification:'Avenir Medium';font-variant-ligatures:normal;font-variant-caps:normal;font-variant-numeric:normal;font-variant-east-asian:normal;fill:#373e48;stroke-width:0.264583"
         d="m 128.38614,165.58782 h 2.63525 q 0.71966,0 1.18532,0.20108 0.46567,0.1905 0.73025,0.49742 0.27517,0.29633 0.381,0.67733 0.10583,0.37041 0.10583,0.71966 0,0.35983 -0.127,0.6985 -0.127,0.32808 -0.37041,0.60325 -0.23283,0.26458 -0.58208,0.45508 -0.33867,0.17992 -0.762,0.22225 l 2.12724,3.41841 h -1.26999 l -1.905,-3.30199 h -1.13241 v 3.30199 h -1.016 z m 1.016,3.30199 h 1.3335 q 0.29633,0 0.58208,-0.0423 0.29633,-0.0529 0.51858,-0.17992 0.23283,-0.127 0.37041,-0.35983 0.13759,-0.24342 0.13759,-0.62442 0,-0.381 -0.13759,-0.61383 -0.13758,-0.24341 -0.37041,-0.37041 -0.22225,-0.127 -0.51858,-0.16934 -0.28575,-0.0529 -0.58208,-0.0529 h -1.3335 z" />
      <path
         id="path1300"
         style="font-style:normal;font-variant:normal;font-weight:500;font-stretch:normal;font-size:10.5833px;font-family:Avenir;-inkscape-font-specification:'Avenir Medium';font-variant-ligatures:normal;font-variant-caps:normal;font-variant-numeric:normal;font-variant-east-asian:normal;fill:#373e48;stroke-width:0.264583"
         d="m 135.33226,170.9218 q 0,0.32808 0.13758,0.60325 0.14817,0.26458 0.381,0.45508 0.23283,0.1905 0.53975,0.29633 0.30691,0.10584 0.63499,0.10584 0.4445,0 0.77258,-0.20109 0.32809,-0.21166 0.60325,-0.55033 l 0.71967,0.55033 q -0.79375,1.02658 -2.2225,1.02658 -0.59266,0 -1.07949,-0.20108 -0.47625,-0.20108 -0.81492,-0.55033 -0.32808,-0.35983 -0.50799,-0.83608 -0.17992,-0.48683 -0.17992,-1.04775 0,-0.56091 0.1905,-1.03716 0.20108,-0.48683 0.53975,-0.83608 0.34925,-0.35983 0.82549,-0.56092 0.47625,-0.20108 1.03717,-0.20108 0.66675,0 1.12183,0.23283 0.46566,0.23284 0.76199,0.61384 0.29634,0.37041 0.42334,0.84666 0.13758,0.46566 0.13758,0.9525 v 0.33866 z m 3.00565,-0.762 q -0.0106,-0.31749 -0.10583,-0.58208 -0.0847,-0.26458 -0.26458,-0.45508 -0.17992,-0.20108 -0.45508,-0.30691 -0.26459,-0.11642 -0.62442,-0.11642 -0.34925,0 -0.64558,0.13758 -0.28575,0.127 -0.48683,0.33867 -0.20108,0.21166 -0.3175,0.47625 -0.10583,0.254 -0.10583,0.50799 z" />
      <path
         id="path1302"
         style="font-style:normal;font-variant:normal;font-weight:500;font-stretch:normal;font-size:10.5833px;font-family:Avenir;-inkscape-font-specification:'Avenir Medium';font-variant-ligatures:normal;font-variant-caps:normal;font-variant-numeric:normal;font-variant-east-asian:normal;fill:#373e48;stroke-width:0.264583"
         d="m 139.90044,168.06431 h 1.10066 l 1.50283,3.84174 1.43933,-3.84174 h 1.016 l -1.9685,5.01649 h -1.04774 z" />
      <path
         id="path1304"
         style="font-style:normal;font-variant:normal;font-weight:500;font-stretch:normal;font-size:10.5833px;font-family:Avenir;-inkscape-font-specification:'Avenir Medium';font-variant-ligatures:normal;font-variant-caps:normal;font-variant-numeric:normal;font-variant-east-asian:normal;fill:#373e48;stroke-width:0.264583"
         d="m 146.51501,170.9218 q 0,0.32808 0.13758,0.60325 0.14817,0.26458 0.381,0.45508 0.23283,0.1905 0.53975,0.29633 0.30692,0.10584 0.635,0.10584 0.4445,0 0.77258,-0.20109 0.32808,-0.21166 0.60325,-0.55033 l 0.71966,0.55033 q -0.79375,1.02658 -2.22249,1.02658 -0.59267,0 -1.0795,-0.20108 -0.47625,-0.20108 -0.81491,-0.55033 -0.32808,-0.35983 -0.508,-0.83608 -0.17992,-0.48683 -0.17992,-1.04775 0,-0.56091 0.1905,-1.03716 0.20109,-0.48683 0.53975,-0.83608 0.34925,-0.35983 0.8255,-0.56092 0.47625,-0.20108 1.03716,-0.20108 0.66675,0 1.12183,0.23283 0.46567,0.23284 0.762,0.61384 0.29633,0.37041 0.42333,0.84666 0.13758,0.46566 0.13758,0.9525 v 0.33866 z m 3.00566,-0.762 q -0.0106,-0.31749 -0.10584,-0.58208 -0.0847,-0.26458 -0.26458,-0.45508 -0.17991,-0.20108 -0.45508,-0.30691 -0.26458,-0.11642 -0.62441,-0.11642 -0.34925,0 -0.64559,0.13758 -0.28574,0.127 -0.48683,0.33867 -0.20108,0.21166 -0.3175,0.47625 -0.10583,0.254 -0.10583,0.50799 z" />
      <path
         id="path1306"
         style="font-style:normal;font-variant:normal;font-weight:500;font-stretch:normal;font-size:10.5833px;font-family:Avenir;-inkscape-font-specification:'Avenir Medium';font-variant-ligatures:normal;font-variant-caps:normal;font-variant-numeric:normal;font-variant-east-asian:normal;fill:#373e48;stroke-width:0.264583"
         d="m 151.68643,168.06431 h 0.9525 v 0.77258 h 0.0212 q 0.0952,-0.20108 0.254,-0.35983 0.15875,-0.16933 0.34925,-0.28575 0.20108,-0.11642 0.43392,-0.17992 0.23283,-0.0741 0.46566,-0.0741 0.23283,0 0.42333,0.0635 l -0.0423,1.02658 q -0.11642,-0.0317 -0.23283,-0.0529 -0.11642,-0.0212 -0.23284,-0.0212 -0.69849,0 -1.06891,0.39158 -0.37041,0.39158 -0.37041,1.21708 v 2.51883 h -0.9525 z" />
      <path
         id="path1308"
         style="font-style:normal;font-variant:normal;font-weight:500;font-stretch:normal;font-size:10.5833px;font-family:Avenir;-inkscape-font-specification:'Avenir Medium';font-variant-ligatures:normal;font-variant-caps:normal;font-variant-numeric:normal;font-variant-east-asian:normal;fill:#373e48;stroke-width:0.264583"
         d="m 158.26016,169.32372 q -0.16933,-0.21166 -0.42333,-0.34924 -0.24342,-0.14817 -0.60325,-0.14817 -0.33867,0 -0.59267,0.14817 -0.24341,0.13758 -0.24341,0.41274 0,0.22225 0.13758,0.35984 0.14817,0.13758 0.33867,0.22225 0.20108,0.0847 0.42333,0.12699 0.22225,0.0423 0.381,0.0741 0.30691,0.0741 0.5715,0.17991 0.27516,0.10584 0.46566,0.27517 0.20108,0.16933 0.30692,0.41275 0.11641,0.24341 0.11641,0.59266 0,0.42334 -0.17991,0.73025 -0.17992,0.29633 -0.46567,0.48683 -0.28575,0.1905 -0.65616,0.27517 -0.35984,0.0847 -0.73025,0.0847 -0.62442,0 -1.10066,-0.19049 -0.46567,-0.1905 -0.83608,-0.6985 l 0.71966,-0.59267 q 0.23283,0.23284 0.51858,0.41275 0.28575,0.17992 0.6985,0.17992 0.17992,0 0.35983,-0.0318 0.1905,-0.0423 0.32808,-0.11642 0.14817,-0.0847 0.23284,-0.20108 0.0952,-0.127 0.0952,-0.28575 0,-0.21167 -0.13759,-0.34925 -0.127,-0.13758 -0.3175,-0.21167 -0.17991,-0.0847 -0.39158,-0.12699 -0.20108,-0.0529 -0.35983,-0.0847 -0.30692,-0.0741 -0.58208,-0.16933 -0.27517,-0.0953 -0.48683,-0.254 -0.21167,-0.15875 -0.33867,-0.40217 -0.127,-0.24341 -0.127,-0.60325 0,-0.39158 0.15875,-0.67733 0.16933,-0.29633 0.43392,-0.48683 0.27516,-0.1905 0.61383,-0.28575 0.34925,-0.0952 0.6985,-0.0952 0.50799,0 0.97366,0.1905 0.46566,0.1905 0.74083,0.635 z" />
      <path
         id="path1310"
         style="font-style:normal;font-variant:normal;font-weight:500;font-stretch:normal;font-size:10.5833px;font-family:Avenir;-inkscape-font-specification:'Avenir Medium';font-variant-ligatures:normal;font-variant-caps:normal;font-variant-numeric:normal;font-variant-east-asian:normal;fill:#373e48;stroke-width:0.264583"
         d="m 161.00503,170.9218 q 0,0.32808 0.13758,0.60325 0.14817,0.26458 0.381,0.45508 0.23284,0.1905 0.53975,0.29633 0.30692,0.10584 0.635,0.10584 0.4445,0 0.77258,-0.20109 0.32808,-0.21166 0.60325,-0.55033 l 0.71966,0.55033 q -0.79375,1.02658 -2.22249,1.02658 -0.59267,0 -1.0795,-0.20108 -0.47625,-0.20108 -0.81491,-0.55033 -0.32808,-0.35983 -0.508,-0.83608 -0.17992,-0.48683 -0.17992,-1.04775 0,-0.56091 0.1905,-1.03716 0.20109,-0.48683 0.53975,-0.83608 0.34925,-0.35983 0.8255,-0.56092 0.47625,-0.20108 1.03716,-0.20108 0.66675,0 1.12183,0.23283 0.46567,0.23284 0.762,0.61384 0.29633,0.37041 0.42333,0.84666 0.13759,0.46566 0.13759,0.9525 v 0.33866 z m 3.00566,-0.762 q -0.0106,-0.31749 -0.10583,-0.58208 -0.0847,-0.26458 -0.26459,-0.45508 -0.17991,-0.20108 -0.45508,-0.30691 -0.26458,-0.11642 -0.62441,-0.11642 -0.34925,0 -0.64559,0.13758 -0.28574,0.127 -0.48683,0.33867 -0.20108,0.21166 -0.3175,0.47625 -0.10583,0.254 -0.10583,0.50799 z" />
      <path
         id="path1312"
         style="font-style:normal;font-variant:normal;font-weight:500;font-stretch:normal;font-size:10.5833px;font-family:Avenir;-inkscape-font-specification:'Avenir Medium';font-variant-ligatures:normal;font-variant-caps:normal;font-variant-numeric:normal;font-variant-east-asian:normal;fill:#373e48;stroke-width:0.264583"
         d="m 169.35509,165.58782 h 2.63524 q 0.71967,0 1.18533,0.20108 0.46567,0.1905 0.73025,0.49742 0.27517,0.29633 0.381,0.67733 0.10583,0.37041 0.10583,0.71966 0,0.34925 -0.10583,0.73025 -0.10583,0.37042 -0.381,0.67733 -0.26458,0.29633 -0.73025,0.49742 -0.46566,0.1905 -1.18533,0.1905 h -1.61924 v 3.30199 h -1.016 z m 1.016,3.30199 h 1.33349 q 0.29634,0 0.58209,-0.0423 0.29633,-0.0529 0.51858,-0.17992 0.23283,-0.127 0.37041,-0.35983 0.13759,-0.24342 0.13759,-0.62442 0,-0.381 -0.13759,-0.61383 -0.13758,-0.24341 -0.37041,-0.37041 -0.22225,-0.127 -0.51858,-0.16934 -0.28575,-0.0529 -0.58209,-0.0529 h -1.33349 z" />
      <path
         id="path1314"
         style="font-style:normal;font-variant:normal;font-weight:500;font-stretch:normal;font-size:10.5833px;font-family:Avenir;-inkscape-font-specification:'Avenir Medium';font-variant-ligatures:normal;font-variant-caps:normal;font-variant-numeric:normal;font-variant-east-asian:normal;fill:#373e48;stroke-width:0.264583"
         d="m 175.3955,168.06431 h 0.9525 v 0.77258 h 0.0212 q 0.0952,-0.20108 0.254,-0.35983 0.15875,-0.16933 0.34925,-0.28575 0.20108,-0.11642 0.43391,-0.17992 0.23283,-0.0741 0.46567,-0.0741 0.23283,0 0.42333,0.0635 l -0.0423,1.02658 q -0.11642,-0.0317 -0.23284,-0.0529 -0.11641,-0.0212 -0.23283,-0.0212 -0.6985,0 -1.06891,0.39158 -0.37042,0.39158 -0.37042,1.21708 v 2.51883 h -0.9525 z" />
      <path
         id="path1316"
         style="font-style:normal;font-variant:normal;font-weight:500;font-stretch:normal;font-size:10.5833px;font-family:Avenir;-inkscape-font-specification:'Avenir Medium';font-variant-ligatures:normal;font-variant-caps:normal;font-variant-numeric:normal;font-variant-east-asian:normal;fill:#373e48;stroke-width:0.264583"
         d="m 179.88877,170.57255 q 0,0.381 0.11642,0.70908 0.11642,0.3175 0.32808,0.55034 0.21167,0.22225 0.51858,0.35983 0.30692,0.127 0.68792,0.127 0.381,0 0.68791,-0.127 0.30692,-0.13758 0.51858,-0.35983 0.21167,-0.23284 0.32809,-0.55034 0.11641,-0.32808 0.11641,-0.70908 0,-0.381 -0.11641,-0.69849 -0.11642,-0.32809 -0.32809,-0.55034 -0.21166,-0.23283 -0.51858,-0.35983 -0.30691,-0.13758 -0.68791,-0.13758 -0.381,0 -0.68792,0.13758 -0.30691,0.127 -0.51858,0.35983 -0.21166,0.22225 -0.32808,0.55034 -0.11642,0.31749 -0.11642,0.69849 z m -1.01599,0 q 0,-0.55033 0.20108,-1.02658 0.21167,-0.47625 0.5715,-0.83608 0.35983,-0.35983 0.84666,-0.56091 0.48683,-0.21167 1.04775,-0.21167 0.56091,0 1.04774,0.21167 0.48684,0.20108 0.84667,0.56091 0.35983,0.35983 0.56091,0.83608 0.21167,0.47625 0.21167,1.02658 0,0.55033 -0.21167,1.03717 -0.20108,0.47625 -0.56091,0.83608 -0.35983,0.34925 -0.84667,0.56091 -0.48683,0.20108 -1.04774,0.20108 -0.56092,0 -1.04775,-0.20108 -0.48683,-0.21166 -0.84666,-0.56091 -0.35983,-0.35983 -0.5715,-0.83608 -0.20108,-0.48684 -0.20108,-1.03717 z" />
      <path
         id="path1318"
         style="font-style:normal;font-variant:normal;font-weight:500;font-stretch:normal;font-size:10.5833px;font-family:Avenir;-inkscape-font-specification:'Avenir Medium';font-variant-ligatures:normal;font-variant-caps:normal;font-variant-numeric:normal;font-variant-east-asian:normal;fill:#373e48;stroke-width:0.264583"
         d="m 186.77587,170.40322 -1.778,-2.33891 h 1.22766 l 1.21708,1.778 1.19592,-1.778 h 1.15358 l -1.7145,2.33891 2.03199,2.67758 h -1.22766 l -1.48166,-2.10608 -1.48166,2.10608 h -1.17475 z" />
      <path
         id="path1320"
         style="font-style:normal;font-variant:normal;font-weight:500;font-stretch:normal;font-size:10.5833px;font-family:Avenir;-inkscape-font-specification:'Avenir Medium';font-variant-ligatures:normal;font-variant-caps:normal;font-variant-numeric:normal;font-variant-east-asian:normal;fill:#373e48;stroke-width:0.264583"
         d="m 190.29514,168.06431 h 1.10066 l 1.49225,3.91582 h 0.0212 l 1.41816,-3.91582 h 1.02658 l -2.38124,6.09598 q -0.127,0.32808 -0.26459,0.59267 -0.13758,0.27516 -0.32808,0.46566 -0.1905,0.1905 -0.46566,0.29633 -0.26459,0.10584 -0.65617,0.10584 -0.21167,0 -0.43391,-0.0317 -0.21167,-0.0212 -0.41275,-0.10584 l 0.11641,-0.86783 q 0.28575,0.11642 0.5715,0.11642 0.22225,0 0.37042,-0.0635 0.15875,-0.0529 0.26458,-0.16933 0.11642,-0.10584 0.1905,-0.254 0.0741,-0.14817 0.14816,-0.33867 l 0.30692,-0.79374 z" />
    </g>
  </g>
</svg>
